<svg xmlns="http://www.w3.org/2000/svg" width="104" height="104" viewBox="0 0 104 104">
    <g fill="#FFC500" fill-rule="nonzero">
        <path d="M9.013 85.02c-2.773 2.773-2.773 7.107 0 9.88 1.387 1.387 3.12 2.08 4.854 2.08 1.733 0 3.466-.693 5.026-2.08 2.774-2.773 2.774-7.107 0-9.88-2.773-2.773-7.106-2.773-9.88 0zm7.28 7.453c-1.386 1.387-3.466 1.387-4.853 0-1.387-1.386-1.387-3.466 0-4.853.693-.693 1.56-1.04 2.427-1.04.866 0 1.733.347 2.426 1.04 1.387 1.387 1.387 3.467 0 4.853z"/>
        <path d="M103.48 7.887L96.2.607c-.693-.694-1.733-.694-2.427 0l-3.64 3.64-1.386-1.387c-.694-.693-1.734-.693-2.427 0l-4.853 4.853c-.347.347-.52.694-.52 1.214s.173.866.52 1.213l2.513 2.513-18.72 18.72-8.58-8.58c-.693-.693-1.733-.693-2.427 0L49.4 27.647c-.693.693-.693 1.733 0 2.426l4.784 4.75-2.442 2.442c-1.556-1.673-3.768-2.511-5.982-2.511-2.253 0-4.507 1.04-6.067 2.6-.693.693-.693 1.733 0 2.426.694.694 1.734.694 2.427 0 1.878-1.877 5.265-1.902 7.188-.081l-7.273 7.273c-1.556-1.673-3.768-2.512-5.982-2.512-2.253 0-4.506 1.04-6.066 2.6-.694.694-.694 1.734 0 2.427.693.694 1.733.693 2.426 0 1.878-1.877 5.265-1.902 7.189-.082l-7.447 7.447c-1.556-1.673-3.768-2.512-5.982-2.512-2.253 0-4.506 1.04-6.066 2.6-.03.03-.056.06-.083.091-.03.027-.061.053-.09.083l-4.854 4.853c-.693.693-.693 1.733 0 2.426l4.87 4.837-6.982 6.982c-3.31.21-6.437 1.57-8.981 3.955C1.387 82.94 0 86.407 0 90.047c0 3.64 1.387 7.106 3.987 9.88 2.773 2.6 6.24 3.986 9.88 3.986 3.64 0 7.106-1.386 9.88-3.986 2.394-2.554 3.756-5.55 3.957-8.984l7.032-7.032 4.957 4.922c.347.347.694.52 1.214.52.346 0 .866-.173 1.04-.52L46.8 83.98c.693-.693.693-1.733 0-2.427l-4.94-4.94 2.6-2.6.087.087c1.56 1.733 3.813 2.6 6.066 2.6 2.254 0 4.507-.867 6.067-2.6.693-.693.693-1.733 0-2.427-.693-.693-1.733-.693-2.427 0-1.906 2.08-5.2 2.08-7.28 0l-.086-.086 7.453-7.454.087.087c1.56 1.733 3.813 2.6 6.066 2.6 2.254 0 4.507-.867 6.067-2.6.693-.693.693-1.733 0-2.427-.693-.693-1.733-.693-2.427 0-1.906 1.907-5.373 1.907-7.28 0l-.086-.086 7.28-7.28.086.086c1.56 1.734 3.814 2.6 6.067 2.6 2.123 0 4.245-.77 5.788-2.307a.776.776 0 0 0 .279-.293l4.853-4.853c.693-.693.693-1.733 0-2.427l-8.58-8.58 18.72-18.72 2.513 2.513c.347.347.694.52 1.214.52.346 0 .866-.173 1.213-.52l4.853-4.853c.347-.347.52-.693.52-1.213 0-.52-.173-.867-.52-1.213l-1.213-1.214 3.64-3.64c.693-.693.693-1.733 0-2.426zM66.708 47.259l-2.488 2.488-9.88-9.88 2.453-2.453 9.915 9.845zM21.147 97.327c-1.907 2.08-4.507 3.12-7.28 3.12-2.774 0-5.374-1.04-7.28-3.12-2.08-1.907-3.12-4.507-3.12-7.28 0-2.774 1.04-5.374 3.12-7.28 1.887-2.06 4.454-3.097 7.196-3.118 2.91.02 5.476 1.059 7.364 3.118 2.056 1.885 3.095 4.618 3.118 7.36-.024 2.743-1.23 5.311-3.118 7.2zm6.24-10.747a15.388 15.388 0 0 0-.477-1.408 13.394 13.394 0 0 0-3.163-5.005c-1.82-1.706-3.94-2.886-6.209-3.498l4.935-4.935 9.915 9.845-5.001 5.001zm13.346-1.56L18.72 63.007l2.427-2.427L26 65.433 38.307 77.74l4.853 4.853-2.427 2.427zM23.745 58.498c1.9-.953 4.418-.688 5.977.787l-2.595 2.595-3.382-3.382zm15.948 15.775l-9.88-9.88 2.514-2.513 9.88 9.88-2.514 2.513zm4.94-4.94l-9.88-9.88L42.207 52l9.88 9.88-7.454 7.453zm9.88-9.88l-9.88-9.88 7.28-7.28 9.88 9.88-7.28 7.28zm12.047-7.366L66.473 52l2.496-2.496 3.596 3.572c-1.888 1.008-4.337.68-6.005-.99zm8.493-1.387L53.04 28.687l2.427-2.427 8.666 8.667 4.854 4.853 8.493 8.493-2.427 2.427zM70.2 36.14l-2.427-2.427L86.32 15.167l2.427 2.426L70.2 36.14zm24.787-17.333l-9.88-9.88L87.533 6.5l1.387 1.387 3.883 3.882 4.61 4.611-2.426 2.427zM92.387 6.5l2.426-2.427 4.854 4.854-2.427 2.426L92.387 6.5z"/>
    </g>
</svg>
