<svg xmlns="http://www.w3.org/2000/svg" width="104" height="57" viewBox="0 0 104 57">
    <g fill="#FFC500" fill-rule="nonzero" stroke="#FFF" stroke-width="2">
        <path d="M84.238.017l-17.875 15.64H54.326c-8.457 0-15.337 6.88-15.337 15.337 0 4.124 1.612 7.988 4.537 10.879a15.047 15.047 0 0 0 10.817 4.376h.029c1.363 5.839 6.608 10.202 12.856 10.202 6.249 0 11.494-4.363 12.857-10.202H104V.017H84.238zm-17.01 50.34c-3.92 0-7.11-3.19-7.11-7.11 0-3.921 3.19-7.111 7.11-7.111 3.921 0 7.11 3.19 7.11 7.11 0 3.921-3.189 7.11-7.11 7.11zm30.677-10.203h-17.84c-1.396-5.794-6.62-10.113-12.837-10.113-6.216 0-11.44 4.32-12.836 10.113H54.29a9.012 9.012 0 0 1-6.48-2.617 9.13 9.13 0 0 1-2.726-6.543c0-5.096 4.146-9.242 9.242-9.242h14.328l17.875-15.64h11.376v34.042zM14.937 6.825l-4.31-4.31c-14.17 14.17-14.17 37.225 0 51.395l4.31-4.31c-11.793-11.793-11.793-30.982 0-42.775z"/>
        <path d="M26.72 17.615l-4.31-4.31c-8.22 8.22-8.22 21.595 0 29.815l4.31-4.31c-5.844-5.843-5.844-15.351 0-21.195zM36.065 27.425l-4.31-4.31a7.161 7.161 0 0 0-2.11 5.098c0 1.925.749 3.736 2.11 5.097l4.31-4.31a1.116 1.116 0 0 1 0-1.575z"/>
    </g>
</svg>
