<svg xmlns="http://www.w3.org/2000/svg" width="104" height="91" viewBox="0 0 104 91">
    <g fill="#FFC500" fill-rule="nonzero">
        <path d="M34.667 32.96h-20.8c-1.04 0-1.734.694-1.734 1.734v6.933c0 1.04.694 1.733 1.734 1.733h20.8c1.04 0 1.733-.693 1.733-1.733v-6.933c0-1.04-.693-1.734-1.733-1.734zm-1.734 6.934H15.6v-3.467h17.333v3.467zM90.133 32.96h-5.2v-5.2c0-1.04-.693-1.733-1.733-1.733h-6.933c-1.04 0-1.734.693-1.734 1.733v5.2h-5.2c-1.04 0-1.733.694-1.733 1.734v6.933c0 1.04.693 1.733 1.733 1.733h5.2v5.2c0 1.04.694 1.734 1.734 1.734H83.2c1.04 0 1.733-.694 1.733-1.734v-5.2h5.2c1.04 0 1.734-.693 1.734-1.733v-6.933c0-1.04-.694-1.734-1.734-1.734zM88.4 39.894h-5.2c-1.04 0-1.733.693-1.733 1.733v5.2H78v-5.2c0-1.04-.693-1.733-1.733-1.733h-5.2v-3.467h5.2c1.04 0 1.733-.693 1.733-1.733v-5.2h3.467v5.2c0 1.04.693 1.733 1.733 1.733h5.2v3.467z"/>
        <path d="M102.267 79.76h-1.734V19.094c0-1.04-.693-1.734-1.733-1.734h-4.16l-2.947-5.893c-.346-.693-.866-1.04-1.56-1.04V1.76C90.133.72 89.44.027 88.4.027H78c-1.04 0-1.733.693-1.733 1.733v8.667c-.694 0-1.214.347-1.56.867l-3.034 6.067h-2.34V3.494A3.477 3.477 0 0 0 65.867.027H38.133a3.477 3.477 0 0 0-3.466 3.467V17.36H32.24l-2.947-5.893c-.346-.693-.866-1.04-1.56-1.04V1.76C27.733.72 27.04.027 26 .027H15.6c-1.04 0-1.733.693-1.733 1.733v8.667c-.694 0-1.214.347-1.56.867l-3.034 6.067H5.2c-1.04 0-1.733.693-1.733 1.733v60.667H1.733C.693 79.76 0 80.454 0 81.494v6.933c0 1.04.693 1.733 1.733 1.733h100.534c1.04 0 1.733-.693 1.733-1.733v-6.933c0-1.04-.693-1.734-1.733-1.734zM79.733 3.494h6.934v6.933h-6.934V3.494zm-2.426 10.4h11.786l1.734 3.466H75.573l1.734-3.466zm-39.174-10.4h27.734V17.36H62.4v-6.933a3.477 3.477 0 0 0-3.467-3.467H45.067a3.477 3.477 0 0 0-3.467 3.467v6.933h-3.467V3.494zm6.934 13.866v-6.933h13.866v6.933H45.067zM17.333 3.494h6.934v6.933h-6.934V3.494zm-2.426 10.4h11.786l1.734 3.466H13.173l1.734-3.466zm-7.974 6.933H97.067V79.76H6.933V20.827zm93.6 65.867H3.467v-3.467h97.066v3.467z"/>
    </g>
</svg>
