<svg xmlns="http://www.w3.org/2000/svg" width="94" height="104" viewBox="0 0 94 104">
    <path fill="#FFC500" fill-rule="nonzero" d="M91.989 74.533h-5.374L81.59 11.96V1.733C81.589.693 80.895 0 79.855 0H13.99c-1.04 0-1.734.693-1.734 1.733V11.96L7.23 74.533H1.855c-1.04 0-1.733.694-1.733 1.734v8.666c0 1.04.693 1.734 1.733 1.734h15.831l1.156 6.933h-1.387c-1.04 0-1.733.693-1.733 1.733v6.933c0 1.04.693 1.734 1.733 1.734h58.933c1.04 0 1.734-.694 1.734-1.734v-6.933c0-1.04-.694-1.733-1.734-1.733h-1.386l1.155-6.933h15.831c1.04 0 1.734-.694 1.734-1.734v-8.666c0-1.04-.693-1.734-1.733-1.734zM15.722 3.467h62.4V10.4h-62.4V3.467zm50.267 10.4h3.592l4.9 60.666H65.99V13.867zm-24.267 0h10.4v60.666h-10.4V13.867zm-13.867 0v60.666h-8.493l4.9-60.666h3.593zm46.8 86.666H19.19v-3.466H74.655v3.466zM71.362 93.6H22.309l-1.04-6.933h51.306L71.362 93.6zm18.893-10.4H3.59V78h5.2c.866 0 1.733-.693 1.733-1.56l5.027-62.573h5.2l-5.027 62.226c0 .52.173 1.04.52 1.387.347.347.693.52 1.213.52h12.133c1.04 0 1.734-.693 1.734-1.733v-62.4h6.933v62.4c0 1.04.693 1.733 1.733 1.733h13.867c1.04 0 1.733-.693 1.733-1.733v-62.4h6.934v62.4c0 1.04.693 1.733 1.733 1.733h12.133c.52 0 .867-.173 1.214-.52.346-.347.52-.867.52-1.387l-5.027-62.226h5.2l5.027 62.573c0 .867.867 1.56 1.733 1.56h5.2v5.2z"/>
</svg>
