<svg xmlns="http://www.w3.org/2000/svg" width="104" height="104" viewBox="0 0 104 104">
    <g fill="#FFC500" fill-rule="nonzero">
        <path d="M100.645 33.647V11.742c0-4.625-3.762-8.387-8.387-8.387H70.353A51.712 51.712 0 0 0 52 0a51.712 51.712 0 0 0-18.353 3.355H11.742c-4.625 0-8.387 3.762-8.387 8.387v21.905A51.712 51.712 0 0 0 0 52c0 6.46 1.193 12.643 3.355 18.353v21.905c0 4.625 3.762 8.387 8.387 8.387h21.905A51.726 51.726 0 0 0 52 104a51.72 51.72 0 0 0 18.353-3.355h21.905c4.625 0 8.387-3.762 8.387-8.387V70.353A51.712 51.712 0 0 0 104 52c0-6.46-1.193-12.643-3.355-18.353zM92.258 6.71a5.038 5.038 0 0 1 5.032 5.032v14.755A52.367 52.367 0 0 0 77.503 6.71h14.755zM6.71 11.742a5.038 5.038 0 0 1 5.032-5.032h14.755A52.367 52.367 0 0 0 6.71 26.497V11.742zm5.032 85.548a5.038 5.038 0 0 1-5.032-5.032V77.503A52.367 52.367 0 0 0 26.497 97.29H11.742zm85.548-5.032a5.038 5.038 0 0 1-5.032 5.032H77.503A52.355 52.355 0 0 0 97.29 77.503v14.755zM52 100.645C25.176 100.645 3.355 78.822 3.355 52 3.355 25.178 25.176 3.355 52 3.355S100.645 25.178 100.645 52c0 26.822-21.821 48.645-48.645 48.645z"/>
        <path d="M61.224 59.241l11.967 5.32a9.969 9.969 0 0 0 4.054.858c5.504 0 9.98-4.477 9.98-9.979V38.631a6.767 6.767 0 0 0-6.76-6.76 6.764 6.764 0 0 0-6.179 4.016l-1.894 4.262a14.858 14.858 0 0 1-9.254 8.159 11.778 11.778 0 0 0-3.897-5.532l5.318-11.967c.572-1.285.86-2.65.86-4.056 0-5.502-4.477-9.979-9.98-9.979H38.63a6.768 6.768 0 0 0-6.76 6.76 6.767 6.767 0 0 0 4.016 6.18l4.262 1.894a14.857 14.857 0 0 1 8.16 9.254 11.77 11.77 0 0 0-5.531 3.898L30.81 39.441a9.957 9.957 0 0 0-4.056-.86c-5.504 0-9.98 4.477-9.98 9.979v16.809a6.767 6.767 0 0 0 6.76 6.76 6.764 6.764 0 0 0 6.179-4.016l1.894-4.262a14.858 14.858 0 0 1 9.254-8.159 11.778 11.778 0 0 0 3.897 5.532L39.44 73.191a9.912 9.912 0 0 0-.86 4.056c0 5.502 4.477 9.979 9.98 9.979H65.37a6.768 6.768 0 0 0 6.76-6.76 6.767 6.767 0 0 0-4.016-6.18l-4.262-1.894a14.857 14.857 0 0 1-8.16-9.254 11.774 11.774 0 0 0 5.533-3.897zM63.742 52c0-.13-.015-.255-.02-.384 5.193-1.454 9.528-5.135 11.735-10.105l1.896-4.262a3.408 3.408 0 0 1 3.111-2.023 3.41 3.41 0 0 1 3.407 3.405v16.81a6.632 6.632 0 0 1-6.626 6.624 6.553 6.553 0 0 1-2.69-.572l-11.647-5.177c.532-1.337.834-2.791.834-4.316zm-23.484 0c0 .13.015.255.02.384-5.193 1.454-9.528 5.135-11.735 10.105l-1.896 4.262a3.408 3.408 0 0 1-3.111 2.023 3.41 3.41 0 0 1-3.407-3.405v-16.81a6.632 6.632 0 0 1 6.626-6.624c.932 0 1.838.192 2.69.572l11.647 5.177A11.651 11.651 0 0 0 40.258 52zm1.253-23.459l-4.262-1.894a3.407 3.407 0 0 1-2.023-3.113 3.41 3.41 0 0 1 3.407-3.405H55.44a6.632 6.632 0 0 1 6.626 6.624 6.6 6.6 0 0 1-.57 2.69L56.319 41.09A11.715 11.715 0 0 0 52 40.258c-.13 0-.255.015-.384.02-1.454-5.193-5.136-9.528-10.105-11.737zM62.49 75.46l4.262 1.894a3.407 3.407 0 0 1 2.023 3.113 3.41 3.41 0 0 1-3.407 3.405H48.561a6.632 6.632 0 0 1-6.626-6.624 6.6 6.6 0 0 1 .57-2.69l5.177-11.647a11.7 11.7 0 0 0 4.318.832c.13 0 .255-.015.384-.02 1.454 5.193 5.136 9.528 10.105 11.737zM52 60.387c-4.625 0-8.387-3.762-8.387-8.387s3.762-8.387 8.387-8.387 8.387 3.762 8.387 8.387-3.762 8.387-8.387 8.387z"/>
        <path d="M52 6.71C27.027 6.71 6.71 27.027 6.71 52S27.027 97.29 52 97.29c9.857 0 19.227-3.11 27.099-8.997l-2.01-2.688c-7.287 5.45-15.962 8.33-25.089 8.33-23.123 0-41.935-18.812-41.935-41.935S28.877 10.065 52 10.065 93.935 28.877 93.935 52a42.01 42.01 0 0 1-13.99 31.269l2.237 2.5A45.36 45.36 0 0 0 97.29 52C97.29 27.027 76.973 6.71 52 6.71zM10.065 10.065h3.355v3.355h-3.355zM90.581 10.065h3.355v3.355h-3.355zM10.065 90.581h3.355v3.355h-3.355zM90.581 90.581h3.355v3.355h-3.355z"/>
    </g>
</svg>
