<svg xmlns="http://www.w3.org/2000/svg" width="97" height="104" viewBox="0 0 97 104">
    <g fill="#FFC500" fill-rule="nonzero">
        <path d="M96.986 51.375c0-.172-.005-.343-.007-.515l-.01-.705-.006-.174c-.33-14.112-4.665-26.838-11.447-35.917C79.486 5.95 71.52.719 62.7 0h-.347c-.124.01-.246.027-.37.04-.452-.024-.905-.04-1.361-.04H36.378c-9.006 0-17.245 4.681-23.597 12.408-.18.154-.33.338-.442.547C4.782 22.451.014 36.327.014 51.72c0 28.446 16.277 51.72 36.364 51.72h24.244c.494 0 .984-.018 1.473-.046.144.016.287.034.431.047 16.624-1.38 30.478-18.275 33.768-41.549l.057-.544c.415-3.122.635-6.34.635-9.628v-.345zM39.713 78.864a1.485 1.485 0 0 0-.225-.556c-3.069-7.631-4.841-16.768-4.841-26.588 0-25.452 12.07-46.33 27.452-48.22 17.496 1.138 31.424 22.394 31.424 48.22 0 25.828-13.93 47.085-31.427 48.222-9.403-1.143-17.474-9.23-22.383-21.078zM5.632 68.889c.378-.117.757-.367 1.135-.618l2.251-3.448 3.637 3.62c.692.69 1.731.69 2.424 0l3.983-3.965 4.156 4.137c.692.69 1.731.69 2.424 0l4.156-4.137 2.846 2.535a70.168 70.168 0 0 0 2.326 8.832l-3.094-1.54c-.865-.518-1.731-.173-2.25.517l-2.252 3.448-3.636-3.62c-.693-.69-1.732-.69-2.425 0l-3.983 3.965-3.983-3.965c-.692-.69-1.731-.69-2.424 0l-2.5 2.489a59.733 59.733 0 0 1-2.791-8.25zM3.484 52.57l4.322 2.427c.693.345 1.559.172 2.078-.345l3.983-3.965 4.156 3.965c.693.69 1.732.69 2.424 0l4.156-4.137 6.629 3.99c.083 2.479.276 4.913.573 7.288l-1.314-1.107c-.693-.517-1.732-.345-2.251.173l-3.983 3.965-3.983-3.965c-.693-.69-1.732-.69-2.424 0l-3.983 3.965-3.983-3.965c-.347-.345-.866-.518-1.386-.518-.519 0-1.039.345-1.385.69l-2.432 3.632A69.229 69.229 0 0 1 3.484 52.57zm5.657-27.892L13 27.24c.52.345 1.385.345 1.905 0l4.156-2.758 4.329 2.93c.52.346 1.385.346 1.905 0l4.329-2.93 5.518 2.668a69.765 69.765 0 0 0-2.29 8.305l-2.19-2.18c-.692-.69-1.731-.69-2.424 0l-3.983 3.965-3.983-3.965c-.692-.69-1.731-.69-2.424 0l-3.982 3.965-3.983-3.966c-.347-.345-.693-.517-1.212-.517-.52 0-.866.172-1.212.517l-2.037 2.098c.937-3.807 2.192-7.395 3.718-10.694zm5.576-9.257l10.925-3.18 4.502 2.931c.52.345 1.386.345 1.905 0l4.33-2.93 4.83 2.335c-1.858 2.832-3.502 6.002-4.895 9.442l-6.343-3.157c-.52-.173-1.212-.173-1.731.172l-4.156 2.758-4.156-2.758c-.52-.345-1.386-.345-1.905 0l-4.156 2.758-3.157-2.226a45.862 45.862 0 0 1 4.007-6.145zm10.406 31.473c-.693-.345-1.559-.172-2.078.345l-3.983 3.965-3.983-3.965c-.693-.69-1.732-.69-2.425 0l-4.329 4.31-4.786-2.744c.105-2.578.35-5.103.721-7.559.215-.086.43-.215.602-.386l3.81-3.965 3.983 3.965c.692.69 1.731.69 2.424 0l3.983-3.965 3.983 3.965c.692.69 1.731.69 2.424 0l3.983-3.965 2.251 2.24c.13.13.27.234.419.314a79.673 79.673 0 0 0-.929 11.071l-6.07-3.626zm27.1-43.445c-3.318 2.031-6.37 4.878-9.06 8.377L37.07 8.792c-.52-.172-1.212-.172-1.732.173l-4.156 2.758-4.156-2.758c-.519-.345-1.039-.345-1.558-.345l-6 1.707c4.94-4.363 10.724-6.88 16.91-6.88h15.845v.001zM9.954 80.442l2.182-2.172 3.983 3.965c.693.69 1.732.69 2.424 0l3.983-3.965 3.983 3.965c.346.345.693.517 1.212.517.693 0 1.212-.344 1.385-.862l2.598-3.965 5.001 2.49c1.303 3.061 2.809 5.894 4.491 8.45l-3.258 2.163-4.156-2.759c-.52-.345-1.386-.345-1.905 0l-4.156 2.759-4.156-2.759c-.52-.345-1.385-.345-1.905 0l-4.28 2.84c-2.841-2.96-5.35-6.566-7.425-10.667zm26.425 19.55c-6.014 0-11.648-2.378-16.497-6.52l2.644-1.755 4.33 2.759c.519.344 1.385.344 1.904 0l4.156-2.759 3.983 2.931c.52.345 1.385.345 1.905 0l4.427-2.938c2.688 3.458 5.736 6.271 9.054 8.283H36.378z"/>
        <path d="M64.085 13.792c-8.966 0-16.482 9.987-19.436 24.31a50.57 50.57 0 0 0-.28 1.44c-.025.136-.048.274-.072.41a63.218 63.218 0 0 0-.548 3.813 65.57 65.57 0 0 0-.153 1.5 68.538 68.538 0 0 0-.133 1.68l-.027.435c-.02.343-.039.687-.054 1.032l-.015.301c-.018.433-.03.868-.04 1.305a72.732 72.732 0 0 0-.021 1.703 72.714 72.714 0 0 0 .02 1.702c.01.437.023.872.041 1.305l.015.3c.015.346.034.69.054 1.032l.027.435c.026.389.055.775.087 1.16a70.347 70.347 0 0 0 .38 3.466 62.68 62.68 0 0 0 .367 2.367l.072.411a61.114 61.114 0 0 0 .28 1.439c2.954 14.324 10.47 24.31 19.436 24.31 11.602 0 20.78-16.722 20.78-37.928 0-21.205-9.178-37.928-20.78-37.928zm-17.086 43.38l-.027-.318c-.013-.158-.024-.317-.035-.476a60.58 60.58 0 0 1-.045-.672l-.023-.381c-.02-.35-.037-.702-.05-1.054l-.007-.193a67.988 67.988 0 0 1-.036-3.333c.096-6.43 1.14-12.5 2.853-17.661 2.543 4.319 4.066 11.14 4.066 18.636 0 7.497-1.523 14.318-4.065 18.637-1.31-3.945-2.228-8.421-2.631-13.184zm17.086 29.029c-5.093 0-9.775-4.707-12.983-12.001 3.667-4.487 6.056-13.036 6.056-22.48 0-9.443-2.389-17.992-6.056-22.48 3.207-7.293 7.89-12 12.983-12 9.35 0 17.316 15.861 17.316 34.48 0 18.62-7.965 34.48-17.316 34.48z"/>
    </g>
</svg>
