<svg xmlns="http://www.w3.org/2000/svg" width="99" height="104" viewBox="0 0 99 104">
    <path fill="#FFC500" fill-rule="nonzero" d="M97.23 0H79.895c-1.04 0-1.733.693-1.733 1.733v1.734h-6.934V1.733C71.23.693 70.536 0 69.496 0H55.63c-1.04 0-1.733.693-1.733 1.733v1.734h-6.934V1.733C46.962.693 46.27 0 45.23 0H27.896c-1.04 0-1.733.693-1.733 1.733v6.934c0 1.04.693 1.733 1.733 1.733h17.333c1.04 0 1.733-.693 1.733-1.733V6.933h6.934v1.734c0 1.04.693 1.733 1.733 1.733h1.733v6.933h-5.2c-1.04 0-1.733.693-1.733 1.733V26c0 1.04.693 1.733 1.733 1.733h1.734v52h-8.667c-1.04 0-1.733.694-1.733 1.734V83.2h-1.733a3.477 3.477 0 0 1-3.467-3.467v-41.6c0-4.853-3.813-8.667-8.667-8.667-4.853 0-8.667 3.814-8.667 8.667v22.533c0 2.966-.846 4.24-1.733 4.787v-1.32c0-1.04-.693-1.733-1.733-1.733H8.829c-1.04 0-1.733.693-1.733 1.733v1.733h-5.2c-1.04 0-1.733.693-1.733 1.733s.693 1.734 1.733 1.734h5.2v1.733c0 1.04.693 1.733 1.733 1.733h8.667c1.04 0 1.733-.693 1.733-1.733v-1.93c3.283-.78 5.2-3.858 5.2-8.47V38.133c0-2.946 2.254-5.2 5.2-5.2 2.947 0 5.2 2.254 5.2 5.2v41.6c0 3.814 3.12 6.934 6.934 6.934h1.733V88.4c0 1.04.693 1.733 1.733 1.733h8.667v4.309l-11.267 6.438c-.693.346-1.04 1.213-.867 1.906.174.694.867 1.214 1.734 1.214h38.133c.867 0 1.56-.694 1.733-1.387.173-.694-.173-1.56-.867-1.907L71.23 94.268V27.733h1.733c1.04 0 1.733-.693 1.733-1.733v-6.933c0-1.04-.693-1.734-1.733-1.734h-5.2V10.4h1.733c1.04 0 1.733-.693 1.733-1.733V6.933h6.934v1.734c0 1.04.694 1.733 1.734 1.733h17.333c1.04 0 1.733-.693 1.733-1.733V1.733C98.962.693 98.27 0 97.23 0zM43.495 6.933H29.629V3.467h13.867v3.466zm-27.734 62.4h-5.2v-3.466h5.2v3.466zm31.2 17.334V83.2h6.934v3.467h-6.934zm3.12 13.866l6.067-3.466h13l6.067 3.466H50.083zm17.68-6.933h-10.4V27.733h10.4V93.6zm3.467-69.333H53.896V20.8h17.333v3.467zm-6.933-6.934h-3.467V10.4h3.467v6.933zm3.466-10.4H57.364V3.467h10.4v3.466zm27.734 0H81.629V3.467h13.867v3.466z"/>
</svg>
