<svg xmlns="http://www.w3.org/2000/svg" width="104" height="104" viewBox="0 0 104 104">
    <path fill="#FFC500" fill-rule="nonzero" d="M101.96 49.96h-8.616l2.099-2.098a2.04 2.04 0 0 0-2.884-2.884l-4.983 4.983H78.66l6.156-6.156a2.04 2.04 0 0 0-2.884-2.884l-9.04 9.04h-15.97L68.216 38.67H81a2.04 2.04 0 0 0 0-4.078h-8.706l6.304-6.304h12.784a2.04 2.04 0 0 0 0-4.079h-8.705l6.093-6.093a2.04 2.04 0 0 0-2.884-2.884l-6.093 6.093v-8.706a2.04 2.04 0 0 0-4.079 0v12.784l-6.304 6.304V23a2.04 2.04 0 0 0-4.078 0v12.785L54.04 47.077v-15.97l9.04-9.04a2.04 2.04 0 0 0-2.884-2.883l-6.156 6.155v-8.915l9.04-9.04a2.04 2.04 0 0 0-2.884-2.883l-6.156 6.156V2.039a2.04 2.04 0 0 0-4.08 0v8.617L43.806 4.5a2.04 2.04 0 0 0-2.884 2.884l9.04 9.04v8.915l-6.156-6.156a2.04 2.04 0 0 0-2.884 2.884l9.04 9.04v15.97L38.67 35.784V23a2.04 2.04 0 0 0-4.078 0v8.706l-6.304-6.304V12.618a2.04 2.04 0 0 0-4.079 0v8.705l-6.094-6.093a2.04 2.04 0 0 0-2.884 2.884l6.093 6.093h-8.705a2.04 2.04 0 0 0 0 4.079h12.784l6.304 6.304H23a2.04 2.04 0 0 0 0 4.078h12.785L47.077 49.96h-15.97l-9.04-9.04a2.04 2.04 0 0 0-2.883 2.885l6.155 6.155h-8.915l-9.04-9.04a2.04 2.04 0 0 0-2.883 2.884l6.156 6.156H2.039a2.04 2.04 0 0 0 0 4.08h8.617L4.5 60.194a2.04 2.04 0 0 0 2.884 2.884l9.04-9.04h8.915l-6.155 6.156a2.04 2.04 0 0 0 2.883 2.884l9.04-9.04h15.97L35.785 65.33H23a2.04 2.04 0 0 0 0 4.078h8.705l-6.304 6.304H12.618a2.04 2.04 0 0 0 0 4.079h8.705l-6.093 6.094a2.04 2.04 0 0 0 2.884 2.884l6.093-6.093v8.705a2.04 2.04 0 0 0 4.079 0V78.598l6.304-6.304V81a2.04 2.04 0 0 0 4.078 0V68.215l11.293-11.292v15.97l-9.04 9.04a2.04 2.04 0 0 0 2.884 2.883l6.155-6.155v8.915l-9.04 9.04a2.04 2.04 0 0 0 2.885 2.883l6.155-6.156v8.618a2.04 2.04 0 0 0 4.079 0v-8.618l6.155 6.156c.399.398.92.598 1.442.598a2.04 2.04 0 0 0 1.442-3.481l-9.04-9.04V78.66l6.156 6.155c.399.399.92.598 1.442.598a2.04 2.04 0 0 0 1.442-3.481l-9.04-9.04v-15.97l11.293 11.292V81a2.04 2.04 0 0 0 4.078 0v-8.706l6.304 6.304v12.784a2.04 2.04 0 0 0 4.079 0v-8.705l6.093 6.093c.398.398.92.597 1.442.597a2.04 2.04 0 0 0 1.442-3.481l-6.093-6.093h8.705a2.04 2.04 0 0 0 0-4.079H78.597l-6.304-6.304h8.706a2.04 2.04 0 0 0 0-4.078H68.215L56.923 54.04h15.97l9.04 9.04c.398.398.92.597 1.442.597a2.04 2.04 0 0 0 1.442-3.481L78.66 54.04h8.915l9.04 9.04c.398.398.92.597 1.442.597a2.04 2.04 0 0 0 1.442-3.481l-6.156-6.156h8.617a2.04 2.04 0 0 0 0-4.08z"/>
</svg>
