<svg xmlns="http://www.w3.org/2000/svg" width="104" height="104" viewBox="0 0 104 104">
    <path fill="#FFC500" fill-rule="nonzero" d="M95.333 83.348V20.652C100.235 19.82 104 15.53 104 10.4 104 4.68 99.32 0 93.6 0c-5.72 0-10.4 4.68-10.4 10.4 0 5.13 3.765 9.42 8.667 10.252v29.615H67.6V20.652c4.902-.832 8.667-5.122 8.667-10.252 0-5.72-4.68-10.4-10.4-10.4-5.72 0-10.4 4.68-10.4 10.4 0 5.13 3.764 9.42 8.666 10.252v29.615H39.867V20.652c4.902-.832 8.666-5.122 8.666-10.252 0-5.72-4.68-10.4-10.4-10.4-5.72 0-10.4 4.68-10.4 10.4 0 5.13 3.765 9.42 8.667 10.252v29.615H12.133V20.652C17.035 19.82 20.8 15.53 20.8 10.4 20.8 4.68 16.12 0 10.4 0 4.68 0 0 4.68 0 10.4c0 5.13 3.765 9.42 8.667 10.252V52c0 1.04.693 1.733 1.733 1.733h26v29.615c-4.902.832-8.667 5.122-8.667 10.252 0 5.72 4.68 10.4 10.4 10.4 5.72 0 10.4-4.68 10.4-10.4 0-5.13-3.764-9.42-8.666-10.252V53.733h24.266v29.615c-4.902.832-8.666 5.122-8.666 10.252 0 5.72 4.68 10.4 10.4 10.4 5.72 0 10.4-4.68 10.4-10.4 0-5.13-3.765-9.42-8.667-10.252V53.733h24.267v29.615C86.964 84.18 83.2 88.47 83.2 93.6c0 5.72 4.68 10.4 10.4 10.4 5.72 0 10.4-4.68 10.4-10.4 0-5.13-3.765-9.42-8.667-10.252zM86.667 10.4c0-3.813 3.12-6.933 6.933-6.933 3.813 0 6.933 3.12 6.933 6.933 0 3.813-3.12 6.933-6.933 6.933-3.813 0-6.933-3.12-6.933-6.933zm-27.734 0c0-3.813 3.12-6.933 6.934-6.933 3.813 0 6.933 3.12 6.933 6.933 0 3.813-3.12 6.933-6.933 6.933-3.814 0-6.934-3.12-6.934-6.933zm-27.733 0c0-3.813 3.12-6.933 6.933-6.933 3.814 0 6.934 3.12 6.934 6.933 0 3.813-3.12 6.933-6.934 6.933-3.813 0-6.933-3.12-6.933-6.933zm-27.733 0c0-3.813 3.12-6.933 6.933-6.933 3.813 0 6.933 3.12 6.933 6.933 0 3.813-3.12 6.933-6.933 6.933-3.813 0-6.933-3.12-6.933-6.933zm41.6 83.2c0 3.813-3.12 6.933-6.934 6.933-3.813 0-6.933-3.12-6.933-6.933 0-3.813 3.12-6.933 6.933-6.933 3.814 0 6.934 3.12 6.934 6.933zm27.733 0c0 3.813-3.12 6.933-6.933 6.933-3.814 0-6.934-3.12-6.934-6.933 0-3.813 3.12-6.933 6.934-6.933 3.813 0 6.933 3.12 6.933 6.933zm20.8 6.933c-3.813 0-6.933-3.12-6.933-6.933 0-3.813 3.12-6.933 6.933-6.933 3.813 0 6.933 3.12 6.933 6.933 0 3.813-3.12 6.933-6.933 6.933z"/>
</svg>
