<svg xmlns="http://www.w3.org/2000/svg" width="91" height="104" viewBox="0 0 91 104">
    <g fill="#FFC500" fill-rule="nonzero">
        <path d="M63.317 17.28c-8.162-2.431-28.482-2.431-35.776 0-.869.174-1.216.869-1.216 1.737l1.737 19.104c0 .521.347.869.694 1.216.348.347.869.52 1.39.347 8.857-2.257 21.361-2.257 30.392 0h.348c.347 0 .694-.173 1.215-.347.348-.174.695-.695.695-1.216l1.737-19.104c.174-.694-.347-1.563-1.216-1.737zm-3.994 18.583a72.894 72.894 0 0 0-14.068-1.39c-4.862 0-9.9.522-14.24 1.39l-1.39-15.63c7.294-1.737 23.272-1.737 31.087 0l-1.39 15.63zM59.15 74.419H31.36c-2.952 0-5.21 2.257-5.21 5.21v12.157c0 .868.521 1.563 1.39 1.736 5.904 1.216 11.81 1.737 17.714 1.737 5.905 0 11.81-.52 17.715-1.737.868-.173 1.39-.868 1.39-1.736V79.629c0-2.953-2.259-5.21-5.21-5.21zm1.736 15.978a85.97 85.97 0 0 1-31.261 0V79.629c0-1.042.694-1.737 1.736-1.737H59.15c1.042 0 1.737.695 1.737 1.737v10.768z"/>
        <path d="M87.805 60.178c.174.173.521.347.869.347.347 0 .52 0 .868-.347.521-.348.868-.869.868-1.564v-8.683c0-.521-.347-1.042-.868-1.39L71.306 36.937V18.67c0-4.69-.52-8.684-1.736-13.72-.174-.695-.695-1.216-1.39-1.216L57.24 1.303c-7.99-1.737-16.325-1.737-24.14 0L22.156 3.734c-.521.174-1.042.521-1.216 1.216-1.215 5.036-1.736 9.03-1.736 13.72v16.704L.969 46.978c-.521.174-.868.869-.868 1.39v8.683c0 .695.347 1.216.868 1.563.347.174.521.174.868.174.348 0 .695-.174.868-.174l16.5-10.499v15.047L.968 74.766c-.521.174-.869.868-.869 1.39v8.683c0 .695.348 1.216.869 1.563.347.174.52.174.868.174s.695-.174.869-.174l16.499-10.5v22.83c0 2.953 2.257 5.211 5.21 5.211h41.681c2.953 0 5.21-2.258 5.21-5.21V75.729l16.5 10.5c.173.173.52.347.868.347.347 0 .52 0 .868-.348.521-.347.869-.868.869-1.563v-8.683c0-.521-.348-1.042-.869-1.39L71.307 62.988v-13.31l16.498 10.5zm-.868-9.031v4.515l-15.63-9.9v-4.515l15.63 9.9zM3.574 53.752v-4.516l15.63-9.9v4.516l-15.63 9.9zm0 27.787v-4.515l15.63-9.9v4.516l-15.63 9.9zm64.259 17.194c0 1.042-.695 1.736-1.737 1.736H24.415c-1.042 0-1.737-.694-1.737-1.736V18.67c0-4.168.347-7.642 1.39-11.81l9.899-2.258c7.468-1.736 15.283-1.736 22.577 0l9.9 2.258c1.041 4.168 1.389 7.815 1.389 11.81v80.062zm19.104-21.535v4.515l-15.63-9.9v-4.515l15.63 9.9z"/>
        <path d="M63.317 45.068c-.52-.347-1.215-.174-1.736.174l-6.947 5.21c-.521.347-.695.868-.695 1.39v15.63c0 1.042.695 1.736 1.737 1.736h6.947c1.042 0 1.736-.694 1.736-1.736v-20.84c0-.696-.52-1.217-1.042-1.564zm-2.431 20.667h-3.474V52.71l3.474-2.605v15.63zM27.888 69.208h6.947c1.042 0 1.737-.694 1.737-1.736v-15.63c0-.522-.174-1.043-.695-1.39l-6.947-5.21c-.52-.348-1.216-.521-1.737-.174-.694.347-1.042.868-1.042 1.563v20.84c0 1.043.695 1.737 1.737 1.737zm1.737-19.103l3.473 2.605v13.025h-3.473v-15.63z"/>
    </g>
</svg>
