<svg xmlns="http://www.w3.org/2000/svg" width="104" height="70" viewBox="0 0 104 70">
    <path fill="#FFC500" fill-rule="nonzero" d="M102.267 20.868h-6.934c-.693 0-1.386.52-1.56 1.213L88.92 36.468h-4.68l-4.68-7.8c-.347-.52-.867-.867-1.56-.867h-6.933v-5.2c0-1.04-.693-1.733-1.733-1.733H57.2v-6.934h5.2c1.04 0 1.733-.693 1.733-1.733v-10.4c0-1.04-.693-1.733-1.733-1.733H31.2c-1.04 0-1.733.693-1.733 1.733v10.4c0 1.04.693 1.733 1.733 1.733h5.2v6.934H22.533c-.52 0-.866.173-1.213.52-.347.346-.52.693-.52 1.213v5.2H8.667c-1.04 0-1.734.693-1.734 1.733v10.4H3.467v-5.2c0-1.04-.694-1.733-1.734-1.733S0 33.694 0 34.734v13.867c0 1.04.693 1.733 1.733 1.733s1.734-.693 1.734-1.733v-5.2h3.466v13.867c0 1.04.694 1.733 1.734 1.733h13l6.413 9.707c.347.347.867.693 1.387.693H78c.693 0 1.213-.347 1.56-1.04l4.68-9.36h4.853l4.68 9.36c.347.693.867 1.04 1.56 1.04h6.934c1.04 0 1.733-.693 1.733-1.733V22.6c0-1.04-.693-1.733-1.733-1.733zM32.933 3.534h27.734v6.934H32.933V3.534zm6.934 10.4h13.866v6.934H39.867v-6.934zM10.4 55.534V31.268h10.4v24.266H10.4zm66.387 10.4H30.333l-6.066-9.182V24.334H67.6v5.2c0 1.04.693 1.734 1.733 1.734h7.627l4.507 7.51v17.796l-4.68 9.36zm8.146-10.4v-15.6H88.4v15.6h-3.467zm15.6 10.4h-4.16l-4.506-8.691V38.207l4.68-13.873h3.986v41.6z"/>
</svg>
