<svg xmlns="http://www.w3.org/2000/svg" width="104" height="78" viewBox="0 0 104 78">
    <g fill="none" fill-rule="nonzero">
        <path fill="#FFC500" d="M28.443 38.715v3.882h25.096v-16.73H37.62l-9.176 12.848zm21.75-9.503v10.039h-18.02l7.17-10.039h10.85zM55.212 25.866v16.731H80.31v-3.882l-9.177-12.849h-15.92zm3.347 13.385V29.212h10.85l7.17 10.039H58.56z"/>
        <path fill="#FFC500" d="M97.447 39.301l-6.688-1.673c-1.684-.427-2.658-1.084-4.069-2.695l-8.409-11.77c-2.156-2.76-4.627-3.99-8.01-3.99H38.48c-3.384 0-5.855 1.23-8.054 4.048L22.16 34.807c-1.502 1.73-2.648 2.517-4.032 2.794L8.025 39.286C3.225 40.285 0 44.306 0 49.29V61c0 3.628 3.065 6.693 6.693 6.693h5.153c.816 5.665 5.69 10.038 11.578 10.038h80.308v-3.346H88.49a11.695 11.695 0 0 0 3.397-6.693h6.827c4.148 0 5.02-2.73 5.02-5.019V47.616c0-4.147-3.385-7.825-6.286-8.315zM23.424 74.386c-4.613 0-8.366-3.753-8.366-8.365 0-4.613 3.753-8.366 8.366-8.366 4.612 0 8.365 3.753 8.365 8.366 0 4.613-3.753 8.365-8.365 8.365zm8.18 0A11.695 11.695 0 0 0 35 67.693h33.73a11.676 11.676 0 0 0 3.398 6.693H31.603zm48.705 0c-4.613 0-8.366-3.753-8.366-8.366 0-4.613 3.753-8.365 8.366-8.365 4.613 0 8.365 3.752 8.365 8.365s-3.752 8.366-8.365 8.366zm20.077-11.712c0 1.437-.234 1.674-1.673 1.674h-6.827c-.816-5.666-5.69-10.039-11.577-10.039-5.888 0-10.762 4.374-11.578 10.039h-33.73c-.816-5.666-5.69-10.039-11.577-10.039-5.888 0-10.762 4.374-11.578 10.039H6.693c-1.782 0-3.347-1.565-3.347-3.347v-8.365h3.347v3.346h3.346v-3.346c0-2.159-1.188-3.347-3.346-3.347H3.346c0-4.139 2.77-6.188 5.295-6.715l10.093-1.683c2.183-.439 3.963-1.601 6.051-4.014l8.322-11.655c1.54-1.97 2.997-2.702 5.374-2.702h31.79c2.375 0 3.833.733 5.33 2.646l8.464 11.837c1.64 1.887 3.195 3.192 5.876 3.87l6.816 1.7c1.429.245 3.629 2.519 3.629 5.044v15.057z"/>
        <path fill="#FFC500" d="M48.52 45.943h5.019v3.346H48.52zM23.424 61.001a5.026 5.026 0 0 0-5.02 5.02 5.026 5.026 0 0 0 5.02 5.02 5.026 5.026 0 0 0 5.019-5.02 5.026 5.026 0 0 0-5.02-5.02zm0 6.693c-.922 0-1.674-.75-1.674-1.673a1.675 1.675 0 0 1 3.346 0c0 .923-.75 1.673-1.672 1.673zM80.309 61.001a5.026 5.026 0 0 0-5.02 5.02 5.026 5.026 0 0 0 5.02 5.02 5.026 5.026 0 0 0 5.02-5.02 5.025 5.025 0 0 0-5.02-5.02zm0 6.693c-.922 0-1.673-.75-1.673-1.673 0-.924.75-1.673 1.673-1.673.922 0 1.673.749 1.673 1.673 0 .923-.751 1.673-1.673 1.673zM8.366 74.386h3.346v3.346H8.366zM1.673 74.386h3.346v3.346H1.673z"/>
        <path fill="#D0021B" d="M7.529 10.58h20.914v5.02h3.346v-5.02h40.154v5.02h3.347v-5.02h20.913c4.151 0 7.53-3.377 7.53-7.528V.542H0v2.51c0 4.15 3.378 7.529 7.529 7.529zm92.507-6.692c-.645 1.674-2.121 3.347-3.833 3.347H7.53c-1.712 0-3.187-1.673-3.833-3.347h96.34z"/>
    </g>
</svg>
