<svg xmlns="http://www.w3.org/2000/svg" width="104" height="90" viewBox="0 0 104 90">
    <path fill="#FFC500" fill-rule="nonzero" d="M98.745 18.144l-13.532-3.69c-1.149-.288-2.298-.572-3.448-.667l-.242-.388c-1.23-1.933-2.46-3.866-3.515-5.975l-3.163-6.326C74.493.395 73.966.043 73.263.043c-.703 0-1.23.352-1.757.88l-2.46 5.095c-.816 1.75-1.711 3.576-2.785 5.325-15.934-1.58-31.7-.49-47.3 3.11L5.429 18.145C1.914 19.2-.37 22.714.333 26.228l9.665 51.49c.176.528.352 1.055.88 1.23.35.176.526.176.878.176h.703a118.549 118.549 0 0 1 34.335-6.726l1.419 4.445a7.035 7.035 0 0 0-3.067 5.796c0 3.866 3.163 7.03 7.03 7.03 3.865 0 7.029-3.164 7.029-7.03s-3.164-7.03-7.03-7.03c-.207 0-.412.012-.615.03l-1.07-3.353c14.077-.21 28.186 2.07 41.577 6.839.352.175.879 0 1.406-.176.527-.352.703-.703.879-1.23l9.49-51.49c.527-3.516-1.582-7.206-5.097-8.085zM55.69 82.64a3.525 3.525 0 0 1-3.515 3.515 3.525 3.525 0 0 1-3.515-3.515 3.525 3.525 0 0 1 3.515-3.515 3.525 3.525 0 0 1 3.515 3.515zM72.385 7.6l.879-1.933 1.581 3.163c1.055 2.285 2.46 4.218 3.69 6.327l.37.554c.056.312.177.617.334.851.703 1.055 1.054 2.11 1.054 3.164 0 1.908-.865 3.672-2.202 5.032-.085.081-.17.162-.258.24-1.757 1.406-3.866 1.933-5.975 1.406-3.339-.703-5.624-3.866-5.448-7.381 0-1.055.352-1.933 1.055-2.812 1.932-2.812 3.514-5.8 4.92-8.611zm28.118 17.925l-9.315 49.382a123.378 123.378 0 0 0-39.013-6.327c-.952 0-1.904.014-2.856.037L36.183 27.458c-.351-.879-1.406-1.406-2.284-1.054-.879.351-1.406 1.406-1.055 2.284l12.792 40.08c-10.988.623-21.915 2.795-32.474 6.315L3.848 25.7c-.352-1.758.703-3.515 2.46-4.042l13.532-3.69a144.238 144.238 0 0 1 44.069-3.18 8.894 8.894 0 0 0-.955 2.453c-.107.399-.18.811-.213 1.237l-.022.192c-.022.335-.028.667-.02.996-.007 2.714 1.119 5.238 2.944 7.109l.117.121.045.045a10.225 10.225 0 0 0 5.174 2.8c3.339.703 6.502-.175 8.963-2.108 2.46-2.11 3.866-5.097 3.866-8.26 0-.492-.002-1.134-.145-1.646-.006-.037-.012-.074-.02-.11.344.003.52.174.868.174l13.531 3.69c1.758.528 2.812 2.286 2.46 4.043z"/>
</svg>
