<svg xmlns="http://www.w3.org/2000/svg" width="95" height="103" viewBox="0 0 95 103">
    <g fill="none" fill-rule="nonzero">
        <g fill="#FFC500">
            <path d="M47.3 35.634h-.158c-15.4 0-29.856 5.343-38.656 13.986C2.986 55.277 0 61.72 0 68.634c0 18.071 21.214 33 47.3 33 .628 0 1.414-.472 1.57-1.1 6.287-20.9 6.287-42.9 0-63.8-.314-.628-.942-1.1-1.57-1.1zm-1.1 63.014C22.313 98.177 3.142 84.977 3.142 68.791c0-5.971 2.671-11.785 7.7-16.814 8.014-8.171 21.214-13.043 35.356-13.2 5.658 19.643 5.658 40.228 0 59.871zM92.87 59.205H58.3c-.943 0-1.572.629-1.572 1.572 0 .943.629 1.571 1.571 1.571H92.87c.943 0 1.572-.628 1.572-1.571s-.629-1.572-1.572-1.572zM92.87 74.92H58.3c-.943 0-1.572.628-1.572 1.571s.629 1.571 1.571 1.571H92.87c.943 0 1.572-.628 1.572-1.571s-.629-1.571-1.572-1.571zM92.87 90.634H58.3c-.943 0-1.572.628-1.572 1.571s.629 1.571 1.571 1.571H92.87c.943 0 1.572-.628 1.572-1.571s-.629-1.571-1.572-1.571zM58.3 46.634h34.57c.943 0 1.572-.628 1.572-1.571s-.629-1.571-1.572-1.571H58.3c-.943 0-1.572.628-1.572 1.571s.629 1.571 1.571 1.571z"/>
        </g>
        <path fill="#D0021B" d="M66.189 24.606l-.472-.787c-.786-1.1-1.416-2.044-1.887-3.145L62.1 17.37c-.63-1.1-2.36-1.1-2.831 0l-1.416 2.674c-.629 1.415-1.415 2.83-2.359 4.089-.629.786-1.1 1.73-1.1 2.83-.315 3.146 1.887 5.977 4.875 6.606.314.157.786.157 1.258.157 1.415 0 2.83-.472 4.09-1.415 1.572-1.259 2.358-2.988 2.358-4.876 0-1.1-.314-2.044-.786-2.83zm-3.618 5.19c-.786.628-1.73.786-2.673.628-1.573-.314-2.674-1.73-2.516-3.302 0-.472.157-.787.471-1.101 1.101-1.415 1.888-2.988 2.674-4.56l.315.47c.629 1.26 1.415 2.36 2.044 3.46l.472.787c.157.315.314.63.314 1.101 0 1.101-.314 1.887-1.1 2.516zM52.007 8.06l-.472-.786c-.786-1.101-1.415-2.045-1.887-3.146L47.918.826c-.63-1.101-2.36-1.101-2.831 0l-1.415 2.673c-.63 1.416-1.416 2.831-2.36 4.09-.628.786-1.1 1.73-1.1 2.83-.315 3.146 1.887 5.976 4.875 6.605.315.158.786.158 1.258.158 1.416 0 2.831-.472 4.09-1.416 1.572-1.258 2.358-2.988 2.358-4.875 0-1.1-.314-2.045-.786-2.83zm-3.617 5.19c-.787.629-1.73.786-2.674.629-1.573-.315-2.674-1.73-2.516-3.303 0-.471.157-.786.472-1.1 1.1-1.416 1.887-2.989 2.673-4.561l.315.471c.629 1.259 1.415 2.36 2.044 3.46l.472.787c.157.314.315.629.315 1.1 0 1.102-.315 1.888-1.101 2.517zM33.098 24.606l-.472-.787c-.786-1.1-1.415-2.044-1.887-3.145l-1.73-3.303c-.63-1.1-2.36-1.1-2.831 0l-1.415 2.674c-.63 1.415-1.416 2.83-2.36 4.089-.629.786-1.1 1.73-1.1 2.83-.315 3.146 1.887 5.977 4.875 6.606.315.157.786.157 1.258.157 1.416 0 2.831-.472 4.09-1.415 1.572-1.259 2.358-2.988 2.358-4.876 0-1.1-.314-2.044-.786-2.83zm-3.617 5.19c-.787.628-1.73.786-2.674.628-1.573-.314-2.674-1.73-2.516-3.302 0-.472.157-.787.472-1.101 1.1-1.415 1.887-2.988 2.673-4.56l.315.47c.629 1.26 1.415 2.36 2.044 3.46l.472.787c.157.315.315.63.315 1.101 0 1.101-.315 1.887-1.101 2.516z"/>
    </g>
</svg>
