<svg xmlns="http://www.w3.org/2000/svg" width="102" height="104" viewBox="0 0 102 104">
    <g fill="#FFC500" fill-rule="nonzero">
        <path d="M.321 6.684c-.007-.027.007.027 0 0zM95.863 75.106c-3.377-2.963-7.615-4.281-11.932-3.715l-46.105 6.051-1.82-17.648a99.64 99.64 0 0 0-6.743-28.387l-1.627-4.073a13.142 13.142 0 0 0-6.72-7.077 12.923 12.923 0 0 0 .46-9.464A17.132 17.132 0 0 0 5.791.001a5.469 5.469 0 0 0-4.358 2.01A5.458 5.458 0 0 0 .32 6.678L15.628 73.48a1.53 1.53 0 1 0 2.987-.665L8.148 25.79a3.076 3.076 0 0 1 .627-2.632 3.092 3.092 0 0 1 2.457-1.132l4.385.09a10.123 10.123 0 0 1 2.754.44c2.881.881 5.267 3.02 6.423 5.914l1.627 4.073a96.58 96.58 0 0 1 6.537 27.528l.002.025 1.83 17.746-2.906.38c-1.966-2.642-5.369-4.037-8.785-3.275-4.63 1.033-7.558 5.64-6.528 10.271a.795.795 0 0 1 .006.026l3.747 15.567a4.15 4.15 0 0 0 4.048 3.19H83.18c4.342 0 7.88-3.504 7.938-7.833h3.572c3.91 0 7.091-3.415 7.091-7.613 0-5.247-2.157-10.148-5.918-13.448zM17.986 19.307a13.224 13.224 0 0 0-2.306-.251l-4.385-.09a6.109 6.109 0 0 0-4.41 1.733L3.304 6.003a2.415 2.415 0 0 1 .494-2.053 2.433 2.433 0 0 1 1.93-.89 14.078 14.078 0 0 1 12.788 8.823 9.88 9.88 0 0 1-.53 7.424zm6.386 81.633a1.1 1.1 0 0 1-1.073-.845L19.556 84.54a5.554 5.554 0 0 1 4.21-6.607c2.984-.666 5.955 1.221 6.624 4.22l4.37 18.787H24.372zm70.319-7.833H77.435a1.53 1.53 0 1 0 0 3.06h10.623a4.886 4.886 0 0 1-4.878 4.773H37.901l-1.11-4.773h33.525a1.53 1.53 0 1 0 0-3.06H36.079l-2.705-11.634a8.49 8.49 0 0 0-.088-.349l51.044-6.7c3.43-.45 6.81.61 9.515 2.982 3.099 2.719 4.876 6.782 4.876 11.148 0 2.51-1.808 4.553-4.03 4.553z"/>
    </g>
</svg>
