<svg xmlns="http://www.w3.org/2000/svg" width="104" height="80" viewBox="0 0 104 80">
    <path fill="#FFC500" fill-rule="nonzero" d="M102.647 9.239l-18.027-5.2c-21.147-5.2-43.853-5.2-65.347 0L1.247 9.065C.38 9.24-.14 10.105.033 10.972L10.433 68c.174.52.347 1.04.867 1.213.52.173 1.04.173 1.56 0a119.678 119.678 0 0 1 24.76-5.835c1.529 7.365-.61 13.06-.84 13.635-.52.693-.52 1.56 0 2.08.347.52.867.693 1.387.693.347 0 .693-.173 1.04-.52 1.04-.693 1.907-4.68 2.253-7.106.31-2.555.34-5.7-.351-9.168a118.114 118.114 0 0 1 17.138-.391c1.855 7.738-.429 13.817-.667 14.412-.52.693-.52 1.56 0 2.08.347.52.867.693 1.387.693.347 0 .693-.173 1.04-.52 1.04-.693 1.907-4.68 2.253-7.106a29.059 29.059 0 0 0-.382-9.32 115.15 115.15 0 0 1 17.714 2.835c.723 6.225-1.006 10.824-1.212 11.338-.52.693-.52 1.56 0 2.08.347.52.867.693 1.387.693.347 0 .693-.173 1.04-.52 1.04-.693 1.907-4.68 2.253-7.107.198-1.632.282-3.506.137-5.55 2.758.763 5.488 1.63 8.183 2.604.174.173.347.173.52.173h.694c.52-.347.693-.693.866-1.213l10.4-57.027c.173-.866-.347-1.733-1.213-1.906zm-12.134 56.16a117.12 117.12 0 0 0-7.797-2.37c-.852-4.306-2.82-9.114-6.763-13.923a21.382 21.382 0 0 1-4.737-10.92H76.3c.693 0 1.213-.347 1.387-.867a1.574 1.574 0 0 0 0-1.733l-6.934-12.134c-.52-1.04-2.253-1.04-2.946 0l-6.934 12.134a1.574 1.574 0 0 0 0 1.733c.347.52.867.867 1.56.867h5.298c.284 2.683 1.384 8.062 5.622 13.173 2.993 3.663 4.68 7.34 5.564 10.724a118.784 118.784 0 0 0-17.98-2.725c-1.111-3.29-2.93-6.771-5.784-10.253a21.382 21.382 0 0 1-4.737-10.92H55.5c.693 0 1.213-.346 1.387-.866a1.574 1.574 0 0 0 0-1.734l-6.933-12.133c-.52-1.04-2.254-1.04-2.947 0l-6.933 12.133a1.574 1.574 0 0 0 0 1.734c.346.52.866.866 1.56.866h5.297c.284 2.684 1.384 8.063 5.623 13.174 2.142 2.623 3.614 5.253 4.603 7.778a120.366 120.366 0 0 0-16.935.478c-1.102-3.366-2.94-6.938-5.868-10.51a21.382 21.382 0 0 1-4.738-10.92H34.7c.694 0 1.214-.346 1.387-.866a1.574 1.574 0 0 0 0-1.734l-6.933-12.133c-.52-1.04-2.254-1.04-2.947 0l-6.934 12.133a1.574 1.574 0 0 0 0 1.734c.347.52.867.866 1.56.866h5.298c.284 2.684 1.384 8.063 5.622 13.174 2.394 2.93 3.95 5.868 4.931 8.659a121.091 121.091 0 0 0-23.304 5.38L3.673 12.013l16.467-4.68c20.973-5.027 42.987-5.027 63.613 0l16.467 4.68L90.513 65.4zM65.38 34.719l3.987-6.933 3.986 6.933H65.38zm-20.8 0l3.987-6.933 3.986 6.933H44.58zm-20.8 0l3.987-6.933 3.986 6.933H23.78z"/>
</svg>
