<svg xmlns="http://www.w3.org/2000/svg" width="104" height="104" viewBox="0 0 104 104">
    <g fill="#FFC500" fill-rule="nonzero">
        <path d="M66.666 74.753a218.348 218.348 0 0 0-3.331-1.962c.263-2.244.264-4.514.001-6.754a215.373 215.373 0 0 0 3.33-1.96c1.828-1.099 2.59-3.417 1.772-5.393l-2.386-5.762c-.818-1.975-2.996-3.076-5.067-2.56-1.23.306-2.488.632-3.741.968a29.011 29.011 0 0 0-4.777-4.775c.336-1.253.662-2.512.969-3.743.515-2.07-.585-4.248-2.56-5.066l-5.762-2.387c-1.975-.818-4.294-.057-5.394 1.772-.654 1.09-1.314 2.21-1.96 3.332a29.014 29.014 0 0 0-6.755-.002 215.585 215.585 0 0 0-1.96-3.33c-1.1-1.828-3.418-2.59-5.394-1.772l-5.761 2.387c-1.975.818-3.076 2.996-2.56 5.066.307 1.234.632 2.492.968 3.742a28.994 28.994 0 0 0-4.775 4.777 215.053 215.053 0 0 0-3.743-.97c-2.07-.516-4.248.586-5.067 2.561L.327 58.683C-.49 60.66.271 62.978 2.1 64.076c1.09.655 2.21 1.314 3.331 1.962a29.025 29.025 0 0 0-.001 6.754 218.413 218.413 0 0 0-3.33 1.96C.27 75.853-.492 78.17.326 80.147l2.387 5.761c.818 1.975 2.995 3.077 5.067 2.56 1.229-.306 2.487-.631 3.74-.968a29.026 29.026 0 0 0 4.777 4.775 216.638 216.638 0 0 0-.968 3.743c-.516 2.07.585 4.248 2.56 5.066l5.761 2.387a4.306 4.306 0 0 0 1.65.327c1.492 0 2.942-.766 3.745-2.099.65-1.081 1.308-2.2 1.96-3.331 2.244.263 4.514.263 6.755.001a217.415 217.415 0 0 0 1.96 3.33c1.1 1.829 3.418 2.59 5.394 1.772l5.761-2.386c1.975-.818 3.076-2.997 2.56-5.067-.304-1.223-.63-2.48-.968-3.741a29.026 29.026 0 0 0 4.775-4.777c1.253.336 2.51.662 3.743.969 2.07.516 4.248-.585 5.066-2.56l2.387-5.762c.817-1.976.055-4.294-1.773-5.393zm-4.81 9.143c-1.183-.296-2.39-.61-3.589-.933a4.341 4.341 0 0 0-4.565 1.522 24.358 24.358 0 0 1-4.251 4.252 4.339 4.339 0 0 0-1.52 4.563c.326 1.207.639 2.413.934 3.588l-5.296 2.193c-.63-1.051-1.26-2.125-1.877-3.196a4.341 4.341 0 0 0-4.301-2.153 24.387 24.387 0 0 1-6.012 0 4.338 4.338 0 0 0-4.304 2.151 216.224 216.224 0 0 1-1.878 3.198L19.9 96.887c.296-1.181.61-2.387.933-3.588a4.34 4.34 0 0 0-1.522-4.566 24.362 24.362 0 0 1-4.251-4.25 4.338 4.338 0 0 0-4.564-1.52c-1.2.324-2.406.637-3.587.933l-2.194-5.295c1.046-.627 2.12-1.258 3.196-1.877a4.34 4.34 0 0 0 2.153-4.301 24.389 24.389 0 0 1 0-6.012 4.34 4.34 0 0 0-2.151-4.305c-1.076-.619-2.15-1.25-3.198-1.878l2.194-5.296c1.18.296 2.385.61 3.588.933a4.341 4.341 0 0 0 4.566-1.521 24.353 24.353 0 0 1 4.25-4.252 4.339 4.339 0 0 0 1.52-4.564 213.335 213.335 0 0 1-.934-3.587l5.296-2.193a211.632 211.632 0 0 1 1.877 3.196 4.339 4.339 0 0 0 4.301 2.152 24.343 24.343 0 0 1 6.013.001 4.34 4.34 0 0 0 4.304-2.152 212.34 212.34 0 0 1 1.877-3.197l5.296 2.193c-.296 1.183-.61 2.389-.933 3.589a4.34 4.34 0 0 0 1.522 4.565 24.369 24.369 0 0 1 4.252 4.25 4.339 4.339 0 0 0 4.563 1.52c1.2-.324 2.406-.637 3.587-.933l2.194 5.295a212.013 212.013 0 0 1-3.196 1.878 4.34 4.34 0 0 0-2.153 4.3 24.363 24.363 0 0 1-.001 6.013 4.341 4.341 0 0 0 2.152 4.304c1.074.618 2.148 1.25 3.198 1.878l-2.193 5.296z"/>
        <path d="M49.012 63.355c-3.341-8.067-12.621-11.91-20.689-8.57-8.066 3.342-11.91 12.623-8.57 20.689a15.731 15.731 0 0 0 8.57 8.57 15.813 15.813 0 0 0 6.06 1.213c2.053 0 4.106-.404 6.06-1.213 8.066-3.342 11.91-12.622 8.57-20.689zM38.664 79.751a11.116 11.116 0 0 1-8.563 0 11.116 11.116 0 0 1-6.054-6.055c-2.362-5.7.355-12.257 6.055-14.618a11.126 11.126 0 0 1 4.266-.852c4.393 0 8.569 2.603 10.352 6.907 2.36 5.7-.356 12.257-6.056 14.618zM100.666 20.463c-.802-.12-1.626-.237-2.456-.348a21.623 21.623 0 0 0-1.665-4.018c.508-.663 1.008-1.329 1.492-1.982a3.702 3.702 0 0 0-.361-4.79L94.47 6.123a3.701 3.701 0 0 0-4.79-.36c-.655.484-1.32.984-1.982 1.49a21.62 21.62 0 0 0-4.018-1.665c-.11-.83-.227-1.653-.347-2.455A3.702 3.702 0 0 0 79.694 0H75.16a3.702 3.702 0 0 0-3.641 3.132c-.12.8-.236 1.625-.347 2.455-1.39.418-2.739.976-4.018 1.665a153.564 153.564 0 0 0-1.982-1.491 3.701 3.701 0 0 0-4.79.36L57.18 9.325a3.702 3.702 0 0 0-.36 4.79c.482.653.982 1.319 1.49 1.982a21.647 21.647 0 0 0-1.665 4.018c-.83.111-1.654.228-2.455.348a3.702 3.702 0 0 0-3.132 3.641v4.532a3.702 3.702 0 0 0 3.131 3.642c.802.12 1.626.236 2.456.347.418 1.39.976 2.738 1.665 4.018-.507.663-1.008 1.328-1.492 1.982a3.702 3.702 0 0 0 .361 4.789l3.205 3.205a3.702 3.702 0 0 0 4.79.36c.655-.485 1.32-.985 1.981-1.49a21.63 21.63 0 0 0 4.018 1.665c.111.829.228 1.653.348 2.455a3.702 3.702 0 0 0 3.641 3.132h4.532a3.701 3.701 0 0 0 3.641-3.132c.12-.802.237-1.626.347-2.456a21.604 21.604 0 0 0 4.018-1.665c.662.506 1.327 1.006 1.983 1.491a3.701 3.701 0 0 0 4.789-.36l3.205-3.204a3.702 3.702 0 0 0 .36-4.79c-.484-.654-.984-1.32-1.49-1.982a21.641 21.641 0 0 0 1.664-4.018c.83-.11 1.654-.227 2.456-.347a3.702 3.702 0 0 0 3.131-3.642v-4.532a3.702 3.702 0 0 0-3.131-3.641zm-1.283 7.542c-.728.106-1.47.209-2.216.306a3.67 3.67 0 0 0-3.075 2.665 17.182 17.182 0 0 1-1.623 3.919 3.672 3.672 0 0 0 .287 4.06c.458.595.911 1.193 1.352 1.785l-2.311 2.312c-.593-.443-1.192-.896-1.785-1.352a3.673 3.673 0 0 0-4.061-.288 17.188 17.188 0 0 1-3.918 1.624 3.67 3.67 0 0 0-2.666 3.074c-.097.745-.2 1.489-.305 2.217h-3.27a158.81 158.81 0 0 1-.305-2.216 3.671 3.671 0 0 0-2.666-3.075 17.181 17.181 0 0 1-3.918-1.624 3.671 3.671 0 0 0-4.061.288c-.594.456-1.191.91-1.785 1.352l-2.312-2.312c.442-.592.895-1.19 1.353-1.785a3.673 3.673 0 0 0 .287-4.06 17.188 17.188 0 0 1-1.624-3.919 3.67 3.67 0 0 0-3.074-2.666c-.745-.097-1.489-.2-2.217-.305v-3.27c.728-.105 1.471-.208 2.217-.305a3.67 3.67 0 0 0 3.074-2.666 17.18 17.18 0 0 1 1.624-3.918 3.672 3.672 0 0 0-.287-4.061c-.458-.595-.912-1.193-1.353-1.784l2.312-2.312a156.6 156.6 0 0 1 1.784 1.352 3.672 3.672 0 0 0 4.062.288 17.195 17.195 0 0 1 3.917-1.624 3.67 3.67 0 0 0 2.666-3.074c.098-.746.2-1.489.306-2.217h3.27c.106.728.208 1.471.305 2.216a3.671 3.671 0 0 0 2.666 3.075c1.366.376 2.684.923 3.918 1.624a3.672 3.672 0 0 0 4.06-.288c.594-.456 1.192-.91 1.786-1.352L94.108 12a153.6 153.6 0 0 1-1.352 1.785 3.673 3.673 0 0 0-.287 4.06 17.201 17.201 0 0 1 1.623 3.918 3.67 3.67 0 0 0 3.075 2.666c.745.098 1.488.2 2.216.306v3.27z"/>
        <path d="M77.427 16.963c-5.187 0-9.407 4.22-9.407 9.407s4.22 9.407 9.407 9.407 9.407-4.22 9.407-9.407-4.22-9.407-9.407-9.407zm0 14.633a5.232 5.232 0 0 1-5.225-5.226 5.231 5.231 0 0 1 5.225-5.225 5.231 5.231 0 0 1 5.225 5.225 5.231 5.231 0 0 1-5.225 5.226z"/>
    </g>
</svg>
