<svg xmlns="http://www.w3.org/2000/svg" width="104" height="104" viewBox="0 0 104 104">
    <path fill="#FFC500" fill-rule="nonzero" d="M103.697 52.514c-1.076-4.235-4.894-7.447-9.577-7.447H82.68c-4.655 0-8.657 3.253-9.645 7.729a1.86 1.86 0 0 0-.235.937V62.4h-3.467v-5.2c0-1.04-.693-1.733-1.733-1.733h-5.893a7.237 7.237 0 0 0-2.774-1.496v-3.704h1.734c1.04 0 1.733-.694 1.733-1.734V41.6h1.733c2.947 0 5.2-2.253 5.2-5.2 0-1.04-.693-1.733-1.733-1.733s-1.733.693-1.733 1.733-.694 1.733-1.734 1.733H62.4v-5.2h1.733c2.947 0 5.2-2.253 5.2-5.2 0-1.04-.693-1.733-1.733-1.733s-1.733.693-1.733 1.733-.694 1.734-1.734 1.734H62.4v-5.2h1.733c2.947 0 5.2-2.254 5.2-5.2 0-1.04-.693-1.734-1.733-1.734s-1.733.694-1.733 1.734-.694 1.733-1.734 1.733H62.4v-5.2h6.933c1.04 0 1.734-.693 1.734-1.733V6.933c0-1.04-.694-1.733-1.734-1.733h-3.466V3.467c0-1.04-.694-1.734-1.734-1.734S62.4 2.427 62.4 3.467V5.2h-3.467V1.733C58.933.693 58.24 0 57.2 0s-1.733.693-1.733 1.733V5.2h-5.2V3.467c0-1.04-.694-1.734-1.734-1.734S46.8 2.427 46.8 3.467V5.2h-1.733c-1.04 0-1.733.693-1.733 1.733v6.934c0 1.04.693 1.733 1.733 1.733H52v5.2h-1.733c-2.947 0-5.2 2.253-5.2 5.2 0 1.04.693 1.733 1.733 1.733s1.733-.693 1.733-1.733.694-1.733 1.734-1.733H52v5.2h-1.733c-2.947 0-5.2 2.253-5.2 5.2 0 1.04.693 1.733 1.733 1.733s1.733-.693 1.733-1.733.694-1.734 1.734-1.734H52v5.2h-1.733c-2.947 0-5.2 2.254-5.2 5.2 0 1.04.693 1.734 1.733 1.734s1.733-.694 1.733-1.734.694-1.733 1.734-1.733H52v6.933c0 1.04.693 1.734 1.733 1.734h1.734v3.687c-2.982.775-5.2 3.497-5.2 6.713 0 3.813 3.12 6.933 6.933 6.933.52 0 1.213 0 1.733-.173v3.64H52a6.887 6.887 0 0 0-4.114 1.362L2.426 55.467C1.56 55.12.52 55.64.174 56.507c-.346.866.174 1.906 1.04 2.253l44.458 16.422a6.88 6.88 0 0 0-.383 1.085H1.733C.693 76.267 0 76.96 0 78s.693 1.733 1.733 1.733h43.555c.774 2.982 3.497 5.2 6.712 5.2h6.933v5.2c0 1.04.694 1.734 1.734 1.734H72.8v2.253a9.854 9.854 0 0 0 1.148 4.62l.044.084a9.725 9.725 0 0 0 6.162 4.852l.084.02a10.078 10.078 0 0 0 .815.17l.18.028c.097.014.195.026.293.037.062.007.124.015.187.021.105.01.211.018.317.024.055.004.109.009.164.011.161.008.323.013.486.013h11.44c.166 0 .33-.005.495-.013l.028-.002c3.446-.178 6.482-2.107 8.084-5.083A9.686 9.686 0 0 0 104 94.12V53.56c0-.41-.11-.765-.303-1.046zM46.8 8.667h20.8v3.466H46.8V8.667zm8.667 6.933h3.466v5.2h-3.466v-5.2zm0 8.667h3.466v5.2h-3.466v-5.2zm0 8.666h3.466v5.2h-3.466v-5.2zm3.466 8.667v5.2h-3.466v-5.2h3.466zm41.6 45.067H94.64l1.733-3.467h4.16v3.467zm0-13.867H94.64l-1.733-3.467h7.626V72.8zm0-13.867h-4.16l1.734-3.466h2.426v3.466zm-17.853-10.4h11.44a6.425 6.425 0 0 1 5.613 3.294h-2.666c-.694 0-1.214.52-1.56 1.04L92.04 59.8a1.574 1.574 0 0 0 0 1.733c.347.52 1.04.867 1.56.867h6.933v3.467h-10.4c-.52 0-1.386.173-1.56.693-.173.52-.346 1.213 0 1.733l3.467 6.934c.347.693.867 1.04 1.56 1.04h6.933v3.293h-5.2c-.693 0-1.213.52-1.56 1.04l-3.466 6.933a1.574 1.574 0 0 0 0 1.733c.346.52 1.04.867 1.56.867h8.666V93.6h-10.4c-.52 0-1.386.173-1.56.693-.173.52-.346 1.214 0 1.734l2.254 4.506h-4.94l-2.86-5.72c-.347-.693-.867-1.04-1.56-1.04h-5.2v-3.64H83.2c.693 0 1.213-.346 1.56-.866l3.467-6.934a1.574 1.574 0 0 0 0-1.733c-.347-.52-1.04-.867-1.56-.867h-10.4v-3.466h8.666c.52 0 1.387-.174 1.56-.694.174-.52.347-1.213 0-1.733l-3.466-6.933c-.347-.694-.867-1.04-1.56-1.04h-5.2V62.4h8.666c.694 0 1.214-.347 1.56-.867L89.96 54.6a1.574 1.574 0 0 0 0-1.733c-.347-.52-1.04-.867-1.56-.867H76.982a6.37 6.37 0 0 1 5.698-3.467zM99.347 97.84a6.764 6.764 0 0 1-2.044 1.856c-.05.03-.102.057-.153.085a6.363 6.363 0 0 1-2.521.73l-1.722-3.444h6.91c-.138.269-.295.527-.47.773zm-20.91 1.096a7.065 7.065 0 0 1-1.2-1.41 6.285 6.285 0 0 1-.261-.46h3.277l1.713 3.426a6.427 6.427 0 0 1-3.528-1.556zm-2.17-29.603h4.16L82.16 72.8h-5.893v-3.467zm0 13.867h7.626l-1.733 3.467h-5.893V83.2zm0-27.733h9.36l-1.734 3.466h-7.626v-3.466zM52 81.467A3.477 3.477 0 0 1 48.533 78c0-.952.389-1.817 1.015-2.445l.056-.05c.623-.6 1.468-.972 2.396-.972h6.933v6.934H52zM62.4 88.4V64.48c0-.693-.347-1.213-1.04-1.56-.693-.173-1.387-.173-1.907.347-.346.346-1.213.866-2.253.866a3.477 3.477 0 0 1-3.467-3.466A3.477 3.477 0 0 1 57.2 57.2c1.04 0 1.907.347 2.6 1.213.173.347.693.52 1.213.52h4.854v5.2c0 1.04.693 1.734 1.733 1.734h5.2V88.4H62.4z"/>
</svg>
