<svg xmlns="http://www.w3.org/2000/svg" width="104" height="104" viewBox="0 0 104 104">
    <g fill="#FFC500" fill-rule="nonzero">
        <path d="M102.267 64.133H98.8v-5.2a1.733 1.733 0 1 0-3.467 0v5.2h-4.366L78 47.925v-11.56c0-.957-.776-1.733-1.733-1.733h-.428a13.088 13.088 0 0 0-4.791-7.514 7.044 7.044 0 0 0-1.214-.612 8.628 8.628 0 0 0-10.271-4.876c-3.294-3.336-8.028-3.953-13.033-1.71a13.279 13.279 0 0 0-11.898-2.08 12.308 12.308 0 0 0-4.819-1.963c-5.676-1.135-9.115 1.04-10.928 3.448a8.493 8.493 0 0 0-6.83 2.829 8.187 8.187 0 0 0-1.686 4.245 8.346 8.346 0 0 0-6.885 8.233h-1.75c-.958 0-1.734.776-1.734 1.733v12.168c.003.215.045.427.127.626.031.067.067.13.107.192.04.093.089.182.146.266L14.246 66.95c.33.411.827.65 1.354.65h7.323a15.61 15.61 0 0 0-.27 1.518 1.734 1.734 0 0 0 3.44.43 12.133 12.133 0 0 1 24.08 0 1.733 1.733 0 0 0 3.44-.43 15.33 15.33 0 0 0-.27-1.518h48.924a1.733 1.733 0 0 0 0-3.467zm-91.78-34.22a1.72 1.72 0 0 0 1.993 1.214 1.733 1.733 0 0 0 1.357-2.038 6.543 6.543 0 0 1 .916-4.758 4.334 4.334 0 0 1 2.61-1.387 1.718 1.718 0 0 0 1.711 1.56c.794 0 1.487-.541 1.68-1.312.055-.218 1.397-5.321 8.387-3.92.347.069.67.153.987.244a1.704 1.704 0 0 0-.472 2.08 1.733 1.733 0 0 0 2.324.778c.946-.44 1.928-.794 2.937-1.057a11 11 0 0 1 8.576.672 1.702 1.702 0 0 0 .156 1.596c.539.786 1.61.99 2.399.456.317-.203.644-.391.98-.561 2.155-1.143 5.901-2.477 9.032-.347a1.709 1.709 0 0 0-.333 2.153 1.733 1.733 0 0 0 2.38.582c.476-.27.979-.493 1.499-.664a5.233 5.233 0 0 1 5.845 1.073 1.733 1.733 0 1 0 .839 3.363 3.565 3.565 0 0 1 2.906.388 8.902 8.902 0 0 1 3.02 4.586H6.944a4.941 4.941 0 0 1 3.543-4.702zm41.61 34.22a15.621 15.621 0 0 0-13.964-8.666 15.62 15.62 0 0 0-13.964 8.666h-7.737L5.339 50.267h17.194a1.733 1.733 0 1 0 0-3.467H3.467v-8.701h1.678c.063.015.127.026.192.034.089 0 .177-.006.265-.02.016 0 .026-.012.04-.014h68.891V46.8H29.467a1.733 1.733 0 1 0 0 3.467H72.66L61.568 64.133h-9.47zm13.91 0l10.26-12.826 10.26 12.826h-20.52z"/>
        <path d="M29.467 24.232h-1.734a1.733 1.733 0 1 0 0 3.467h1.734a1.733 1.733 0 1 0 0-3.467zM20.8 27.699h-1.733a1.733 1.733 0 1 0 0 3.466H20.8a1.733 1.733 0 1 0 0-3.466zM48.533 25.965H46.8a1.733 1.733 0 1 0 0 3.467h1.733a1.733 1.733 0 1 0 0-3.467zM57.2 27.699h-1.733a1.733 1.733 0 1 0 0 3.466H57.2a1.733 1.733 0 1 0 0-3.466zM38.133 27.699H36.4a1.733 1.733 0 1 0 0 3.466h1.733a1.733 1.733 0 1 0 0-3.466zM102.267 79.733H45.862a10.4 10.4 0 1 0-15.458 0H1.734a1.733 1.733 0 0 0 0 3.467h100.533a1.733 1.733 0 0 0 0-3.467zm-64.134 0a6.933 6.933 0 1 1 0-13.866 6.933 6.933 0 0 1 0 13.866zM102.267 100.533H1.733a1.733 1.733 0 1 0 0 3.467h100.534a1.733 1.733 0 0 0 0-3.467zM102.267 86.667H83.2a1.733 1.733 0 1 0 0 3.466h19.067a1.733 1.733 0 1 0 0-3.466zM102.267 93.6H83.2a1.733 1.733 0 1 0 0 3.467h19.067a1.733 1.733 0 1 0 0-3.467zM76.267 86.667H1.733a1.733 1.733 0 1 0 0 3.466h74.534a1.733 1.733 0 0 0 0-3.466zM1.733 97.067H20.8a1.733 1.733 0 1 0 0-3.467H1.733a1.733 1.733 0 1 0 0 3.467zM76.267 93.6H27.733a1.733 1.733 0 1 0 0 3.467h48.534a1.733 1.733 0 0 0 0-3.467zM102.267 20.8a1.733 1.733 0 0 0 0-3.467c-8.612-.01-15.59-6.988-15.6-15.6a1.733 1.733 0 0 0-3.467 0c.012 10.525 8.542 19.055 19.067 19.067zM74.533 3.467H78A1.733 1.733 0 1 0 78 0h-3.467a1.733 1.733 0 1 0 0 3.467zM76.574 15.151a1.734 1.734 0 0 0 2.542 1.95l3.003-1.733a1.733 1.733 0 0 0-1.734-3.002l-3.002 1.733c-.398.23-.69.608-.809 1.052zM90.137 21.007a1.733 1.733 0 0 0-1.503.876l-1.733 3a1.734 1.734 0 0 0 3.002 1.734l1.733-3a1.733 1.733 0 0 0-1.5-2.61zM102.267 24.267c-.958 0-1.734.776-1.734 1.733v3.467a1.733 1.733 0 1 0 3.467 0V26c0-.957-.776-1.733-1.733-1.733z"/>
    </g>
</svg>
