<svg xmlns="http://www.w3.org/2000/svg" width="104" height="104" viewBox="0 0 104 104">
    <g fill="#FFC500" fill-rule="nonzero">
        <path d="M76.267 0C65.39 0 55.925 6.347 51.388 15.519L7.731 59.176A19.006 19.006 0 0 0 0 74.533a19.01 19.01 0 0 0 18.884 19.065l.01.002 67.485 9.876c1.131.32 2.319.5 3.545.519l.036.005h.173C97.76 104 104 97.76 104 90.133v-62.4C104 12.48 91.52 0 76.267 0zm0 3.467c13.346 0 24.266 10.92 24.266 24.266C100.533 41.08 89.613 52 76.267 52 62.92 52 52 41.08 52 27.733c0-3.733.855-7.276 2.378-10.444.037-.065.07-.132.098-.2C58.437 9.04 66.732 3.467 76.266 3.467zm-72.8 71.066c0-5.044 2.35-9.497 6.023-12.342a1.87 1.87 0 0 0 .312-.238 15.575 15.575 0 0 1 9.265-3.02c8.666 0 15.6 6.934 15.6 15.6 0 8.667-6.934 15.6-15.6 15.6-8.667 0-15.6-6.933-15.6-15.6zm86.666 26c-5.72 0-10.4-4.68-10.4-10.4 0-5.72 4.68-10.4 10.4-10.4 5.72 0 10.4 4.68 10.4 10.4 0 5.72-4.68 10.4-10.4 10.4zm10.4-19.541c-2.546-2.891-6.268-4.725-10.4-4.725-7.626 0-13.866 6.24-13.866 13.866 0 3.419 1.256 6.556 3.326 8.98l-51.838-7.585a19.01 19.01 0 0 0 10.378-16.995 19.012 19.012 0 0 0-19.066-19.066c-1.024 0-2.029.08-3.008.234L48.98 22.78a27.612 27.612 0 0 0-.447 4.953c0 15.254 12.48 27.734 27.734 27.734 10.409 0 19.525-5.813 24.266-14.352v39.877z"/>
        <path d="M90.133 88.4c-1.04 0-1.733.693-1.733 1.733s.693 1.734 1.733 1.734 1.734-.694 1.734-1.734-.694-1.733-1.734-1.733zM76.267 17.333c1.04 0 1.733-.693 1.733-1.733s-.693-1.733-1.733-1.733-1.734.693-1.734 1.733.694 1.733 1.734 1.733zM76.267 38.133c-1.04 0-1.734.694-1.734 1.734s.694 1.733 1.734 1.733S78 40.907 78 39.867s-.693-1.734-1.733-1.734zM27.733 74.533c0-4.853-3.813-8.666-8.666-8.666-4.854 0-8.667 3.813-8.667 8.666 0 4.854 3.813 8.667 8.667 8.667 4.853 0 8.666-3.813 8.666-8.667zm-13.866 0c0-2.946 2.253-5.2 5.2-5.2 2.946 0 5.2 2.254 5.2 5.2 0 2.947-2.254 5.2-5.2 5.2-2.947 0-5.2-2.253-5.2-5.2zM88.4 29.467c1.04 0 1.733-.694 1.733-1.734S89.44 26 88.4 26s-1.733.693-1.733 1.733.693 1.734 1.733 1.734zM64.133 29.467c1.04 0 1.734-.694 1.734-1.734S65.173 26 64.133 26s-1.733.693-1.733 1.733.693 1.734 1.733 1.734zM67.6 20.8c1.04 0 1.733-.693 1.733-1.733s-.693-1.734-1.733-1.734-1.733.694-1.733 1.734S66.56 20.8 67.6 20.8zM84.933 34.667c-1.04 0-1.733.693-1.733 1.733s.693 1.733 1.733 1.733 1.734-.693 1.734-1.733-.694-1.733-1.734-1.733zM84.933 20.8c1.04 0 1.734-.693 1.734-1.733s-.694-1.734-1.734-1.734-1.733.694-1.733 1.734.693 1.733 1.733 1.733zM67.6 34.667c-1.04 0-1.733.693-1.733 1.733s.693 1.733 1.733 1.733 1.733-.693 1.733-1.733-.693-1.733-1.733-1.733z"/>
        <path d="M76.267 48.533c11.44 0 20.8-9.36 20.8-20.8 0-11.44-9.36-20.8-20.8-20.8-11.44 0-20.8 9.36-20.8 20.8 0 11.44 9.36 20.8 20.8 20.8zm0-38.133C85.8 10.4 93.6 18.2 93.6 27.733c0 9.534-7.8 17.334-17.333 17.334-9.534 0-17.334-7.8-17.334-17.334 0-9.533 7.8-17.333 17.334-17.333z"/>
        <path d="M76.267 34.667c3.813 0 6.933-3.12 6.933-6.934 0-3.813-3.12-6.933-6.933-6.933-3.814 0-6.934 3.12-6.934 6.933 0 3.814 3.12 6.934 6.934 6.934zm0-10.4a3.477 3.477 0 0 1 3.466 3.466 3.477 3.477 0 0 1-3.466 3.467 3.477 3.477 0 0 1-3.467-3.467 3.477 3.477 0 0 1 3.467-3.466z"/>
    </g>
</svg>
