<svg xmlns="http://www.w3.org/2000/svg" width="104" height="94" viewBox="0 0 104 94">
    <g fill="none" fill-rule="nonzero">
        <path fill="#FFC500" d="M12.333 54.598l4.16 4.16c1.462 1.595 3.332 2.677 5.374 3.097v10.547l-6.24-1.337a3.322 3.322 0 0 0-4.16 2.6l-.694 3.467c-.173.866 0 1.733.52 2.6.52.866 1.387 1.386 2.254 1.56l16.986 3.64h.694c.693 0 1.386-.174 1.906-.347.867-.52 1.387-1.387 1.56-2.253l.694-3.467c.173-.867 0-1.907-.52-2.6-.52-.867-1.387-1.387-2.254-1.56l-7.28-1.56V61.904c2.056-.384 4.023-1.518 5.547-3.319l4.16-4.16c2.107-1.686 3.417-3.828 3.838-6.24h24.71c.408 2.422 1.878 4.663 4.212 6.413l4.16 4.16c1.461 1.595 3.331 2.677 5.373 3.097v10.597H70.4a3.477 3.477 0 0 0-3.467 3.466v3.467a3.477 3.477 0 0 0 3.467 3.467h17.333a3.477 3.477 0 0 0 3.467-3.467v-3.467a3.477 3.477 0 0 0-3.467-3.466H80.8V61.904c2.056-.384 4.023-1.518 5.547-3.319l4.16-4.16c2.6-2.08 3.986-4.853 3.986-7.973s-1.386-6.067-3.986-8.147l-4.16-4.16c-1.503-1.64-3.437-2.737-5.547-3.13V20.452h6.933a3.477 3.477 0 0 0 3.467-3.467v-3.467a3.477 3.477 0 0 0-3.467-3.466H70.4a3.477 3.477 0 0 0-3.467 3.466v3.467a3.477 3.477 0 0 0 3.467 3.467h6.933v10.567c-2.055.396-3.875 1.492-5.373 3.126l-4.16 4.16c-2.289 1.75-3.632 4.024-4.12 6.413H38.881c-.418-2.461-1.729-4.723-3.841-6.413l-4.16-4.16c-1.503-1.64-3.437-2.737-5.547-3.13V18.62l6.934 1.485h.693c.693 0 1.387-.173 2.08-.52.867-.52 1.387-1.387 1.56-2.253l.693-3.467c.173-.867 0-1.907-.52-2.6-.52-.867-1.387-1.387-2.253-1.56l-16.987-3.64c-.866-.173-1.906 0-2.6.52-.866.52-1.386 1.387-1.56 2.253l-.693 3.467a3.322 3.322 0 0 0 2.6 4.16l6.587 1.411V31.02c-2.056.396-3.876 1.492-5.374 3.126l-4.16 4.16C9.387 40.558 8 43.678 8 46.798c0 2.947 1.56 5.894 4.333 7.8zm18.894 26.867L14.24 77.998l.693-3.466 8.079 1.648c.106.033.219.056.337.07l8.571 1.748-.693 3.467zm56.506-2.08H70.4v-3.467h17.333v3.467zM70.4 13.518h17.333v3.467H70.4v-3.467zM16.667 9.705l16.986 3.64-.693 3.467-8.324-1.784a1.82 1.82 0 0 0-1.036-.296 2.15 2.15 0 0 0-.264.017l-7.363-1.577.694-3.467zm53.386 31.2l.174-.173 4.333-4.334c1.213-1.386 2.947-2.08 4.68-2.08 1.733 0 3.467.694 4.853 2.08l4.333 4.334c1.734 1.56 2.774 3.64 2.774 5.72 0 1.906-1.04 3.986-2.774 5.373l-.173.173-4.333 4.334c-1.387 1.56-3.12 2.253-4.853 2.253-1.734 0-3.294-.867-4.68-2.253l-4.334-4.334-.173-.173c-1.907-1.387-2.947-3.293-2.947-5.2 0-2.08 1.04-4.16 3.12-5.72zm-55.466 0l.173-.173 4.333-4.334c1.213-1.386 2.947-2.08 4.68-2.08 1.733 0 3.467.694 4.853 2.08l4.334 4.334c1.733 1.56 2.773 3.64 2.773 5.72 0 1.906-1.04 3.986-2.773 5.373l-.174.173-4.333 4.334c-1.386 1.56-3.12 2.253-4.853 2.253-1.733 0-3.293-.867-4.68-2.253l-4.333-4.334-.174-.173c-1.906-1.387-2.946-3.293-2.946-5.2 0-2.08 1.04-3.987 3.12-5.72z"/>
        <path fill="#FFC500" d="M102.267.122H1.733C.693.122 0 .815 0 1.855v90.133c0 1.04.693 1.734 1.733 1.734h100.534c1.04 0 1.733-.694 1.733-1.734V1.855c0-1.04-.693-1.733-1.733-1.733zm-1.734 90.133H3.467V3.59h97.066v86.666z"/>
        <path fill="#D0021B" d="M63.5 48.133c.41 2.422 1.88 4.664 4.213 6.414l4.16 4.16c1.461 1.594 3.33 2.677 5.373 3.096V72.4h-6.933a3.477 3.477 0 0 0-3.467 3.467v3.466a3.477 3.477 0 0 0 3.467 3.467h17.333a3.477 3.477 0 0 0 3.467-3.467v-3.466a3.477 3.477 0 0 0-3.467-3.467h-6.933V61.852c2.055-.383 4.022-1.518 5.546-3.319l4.16-4.16c2.6-2.08 3.987-4.853 3.987-7.973s-1.387-6.067-3.987-8.147l-4.16-4.16c-1.502-1.64-3.437-2.737-5.546-3.13V20.4h6.933a3.477 3.477 0 0 0 3.467-3.467v-3.466A3.477 3.477 0 0 0 87.646 10H70.313a3.477 3.477 0 0 0-3.467 3.467v3.466a3.477 3.477 0 0 0 3.467 3.467h6.933v10.567c-2.056.397-3.876 1.493-5.373 3.126l-4.16 4.16c-2.289 1.75-3.632 4.024-4.12 6.414l-.093 3.466zm24.146 31.2H70.313v-3.466h17.333v3.466zM70.313 13.467h17.333v3.466H70.313v-3.466zm-.347 27.386l.173-.173 4.333-4.333c1.214-1.387 2.947-2.08 4.68-2.08 1.734 0 3.467.693 4.854 2.08l4.333 4.333c1.733 1.56 2.773 3.64 2.773 5.72 0 1.907-1.04 3.987-2.773 5.373l-.173.174-4.334 4.333c-1.386 1.56-3.12 2.253-4.853 2.253-1.733 0-3.293-.867-4.68-2.253l-4.333-4.333-.173-.174c-1.907-1.386-2.947-3.293-2.947-5.2 0-2.08 1.04-4.16 3.12-5.72z"/>
    </g>
</svg>
