<svg xmlns="http://www.w3.org/2000/svg" width="104" height="104" viewBox="0 0 104 104">
    <g fill="#FFC500" fill-rule="nonzero">
        <path d="M52 0C23.4 0 0 23.4 0 52s23.4 52 52 52 52-23.4 52-52S80.6 0 52 0zm0 100.533c-26.693 0-48.533-21.84-48.533-48.533S25.307 3.467 52 3.467 100.533 25.307 100.533 52 78.693 100.533 52 100.533z"/>
        <path d="M52 26c-14.387 0-26 11.613-26 26s11.613 26 26 26 26-11.613 26-26-11.613-26-26-26zm0 48.533A22.488 22.488 0 0 1 29.467 52 22.488 22.488 0 0 1 52 29.467 22.488 22.488 0 0 1 74.533 52 22.488 22.488 0 0 1 52 74.533z"/>
        <path d="M52 46.8c3.813 0 6.933-3.12 6.933-6.933 0-3.814-3.12-6.934-6.933-6.934-3.813 0-6.933 3.12-6.933 6.934 0 3.813 3.12 6.933 6.933 6.933zm0-10.4a3.477 3.477 0 0 1 3.467 3.467A3.477 3.477 0 0 1 52 43.333a3.477 3.477 0 0 1-3.467-3.466A3.477 3.477 0 0 1 52 36.4zM52 57.2c-3.813 0-6.933 3.12-6.933 6.933 0 3.814 3.12 6.934 6.933 6.934 3.813 0 6.933-3.12 6.933-6.934 0-3.813-3.12-6.933-6.933-6.933zm0 10.4a3.477 3.477 0 0 1-3.467-3.467A3.477 3.477 0 0 1 52 60.667a3.477 3.477 0 0 1 3.467 3.466A3.477 3.477 0 0 1 52 67.6zM39.867 45.067c-3.814 0-6.934 3.12-6.934 6.933 0 3.813 3.12 6.933 6.934 6.933 3.813 0 6.933-3.12 6.933-6.933 0-3.813-3.12-6.933-6.933-6.933zm0 10.4A3.477 3.477 0 0 1 36.4 52a3.477 3.477 0 0 1 3.467-3.467A3.477 3.477 0 0 1 43.333 52a3.477 3.477 0 0 1-3.466 3.467zM57.2 52c0 3.813 3.12 6.933 6.933 6.933 3.814 0 6.934-3.12 6.934-6.933 0-3.813-3.12-6.933-6.934-6.933-3.813 0-6.933 3.12-6.933 6.933zm10.4 0a3.477 3.477 0 0 1-3.467 3.467A3.477 3.477 0 0 1 60.667 52a3.477 3.477 0 0 1 3.466-3.467A3.477 3.477 0 0 1 67.6 52zM50.267 52c0 1.04.693 1.733 1.733 1.733s1.733-.693 1.733-1.733-.693-1.733-1.733-1.733-1.733.693-1.733 1.733zM14.213 34.493c-.866-.346-1.906.174-2.253.867-.52.867 0 1.907.867 2.253.866.52 1.906 0 2.253-.866.52-.867 0-1.907-.867-2.254zM20.8 40.907c.867.52 1.907 0 2.253-.867.52-.867 0-1.907-.866-2.253-.867-.347-1.907.173-2.254.866-.52.867 0 1.907.867 2.254zM83.2 62.92c-1.04-.347-1.907 0-2.253.867-.52.866 0 1.906.866 2.253.867.52 1.907 0 2.254-.867.52-.866 0-1.906-.867-2.253zM91.173 66.213c-.866-.346-1.906 0-2.253.867-.52.867 0 1.907.867 2.253.866.52 1.906 0 2.253-.866.52-.867 0-1.907-.867-2.254zM67.253 15.08c.867.52 1.907 0 2.254-.867.346-.866-.174-1.906-.867-2.253-.867-.52-1.907 0-2.253.867-.52.866 0 1.906.866 2.253zM63.96 23.053c.867.52 1.907 0 2.253-.866.347-.867-.173-1.907-.866-2.254-.867-.52-1.907 0-2.254.867-.52.867 0 1.907.867 2.253zM40.213 80.773c-.866-.52-1.906 0-2.253.867-.52.867 0 1.907.867 2.253.866.52 1.906 0 2.253-.866.347-.867 0-1.734-.867-2.254zM36.92 88.92c-.867-.52-1.907 0-2.253.867-.52.866 0 1.906.866 2.253.867.52 1.907 0 2.254-.867.346-.866 0-1.906-.867-2.253zM36.747 15.253c.866-.346 1.213-1.386.866-2.253-.346-.867-1.386-1.387-2.253-.867-.867.347-1.213 1.387-.867 2.254.347.866 1.387 1.213 2.254.866zM37.787 22.36c.346.867 1.386 1.213 2.253.867.867-.347 1.213-1.387.867-2.254-.347-.866-1.387-1.386-2.254-.866-.866.346-1.213 1.386-.866 2.253zM63.96 80.947c-.867.346-1.213 1.386-.867 2.253.347.867 1.387 1.213 2.254.867.866-.347 1.213-1.387.866-2.254-.346-1.04-1.386-1.386-2.253-.866zM67.427 88.92c-.867.347-1.214 1.387-.867 2.253.347.867 1.387 1.214 2.253.867.867-.347 1.214-1.387.867-2.253-.52-.867-1.387-1.387-2.253-.867zM91 37.613c.867-.346 1.387-1.386.867-2.253-.347-.867-1.387-1.213-2.254-.867-.866.347-1.213 1.387-.866 2.254.346.866 1.386 1.213 2.253.866zM83.027 40.907c.866-.347 1.386-1.387.866-2.254-.346-.866-1.386-1.213-2.253-.866-.866.346-1.213 1.386-.867 2.253.347.867 1.387 1.213 2.254.867zM20.8 63.093c-.867.347-1.213 1.387-.867 2.254.347.866 1.387 1.213 2.254.866 1.04-.346 1.386-1.386.866-2.253-.346-.867-1.386-1.213-2.253-.867zM12.827 66.56c-.867.347-1.214 1.387-.867 2.253.347.867 1.387 1.214 2.253.867.867-.52 1.387-1.387.867-2.253-.347-.867-1.387-1.214-2.253-.867z"/>
    </g>
</svg>
