<svg xmlns="http://www.w3.org/2000/svg" width="104" height="85" viewBox="0 0 104 85">
    <g fill="#FFC500" fill-rule="nonzero">
        <path d="M50.169 29.525v20.76c0 4.844 3.806 8.65 8.65 8.65 4.843 0 8.65-3.806 8.65-8.65v-20.76c4.324-3.286 6.92-8.303 6.92-13.84 0-6.573-3.634-12.455-9.516-15.396a1.571 1.571 0 0 0-1.73 0c-.518.346-.864 1.038-.864 1.557v13.84h-6.92V1.846c0-.519-.346-1.21-.692-1.557-.52-.173-1.211-.346-1.73 0-6.055 2.941-9.688 8.823-9.688 15.397 0 5.536 2.595 10.553 6.92 13.84zm1.73-24.565v12.456c0 1.038.692 1.73 1.73 1.73h10.38c1.037 0 1.73-.692 1.73-1.73V4.96a13.695 13.695 0 0 1 5.189 10.726c0 4.67-2.422 8.996-6.228 11.59-.346.347-.692.866-.692 1.385v21.624c0 2.94-2.249 5.19-5.19 5.19-2.94 0-5.19-2.25-5.19-5.19V28.66c0-.519-.172-1.038-.691-1.384-3.98-2.595-6.228-6.92-6.228-11.59 0-4.325 1.903-8.13 5.19-10.726z"/>
        <path d="M95.84 46.652c-4.498-.346-8.131-2.422-10.207-5.709l-.52-.865c-2.594-4.325-7.265-6.92-12.282-7.266-1.038-.173-1.903.52-1.903 1.557-.173 1.038.519 1.903 1.557 1.903 3.979.173 7.439 2.422 9.515 5.71l.519.864c2.595 4.325 7.438 7.093 12.974 7.439 2.768.173 4.844 2.422 4.844 5.19v12.11c0 2.94-2.249 5.19-5.19 5.19H91.54c-.584-3.443-2.877-6.321-5.969-7.726-.068-.031-.137-.064-.206-.094l-.131-.053a9.81 9.81 0 0 0-.34-.134c-.03-.012-.061-.022-.092-.033-.127-.046-.255-.09-.384-.13l-.084-.027a9.943 9.943 0 0 0-.398-.113l-.09-.023a10.195 10.195 0 0 0-.396-.092l-.101-.021c-.13-.026-.26-.05-.39-.07l-.116-.02a10.155 10.155 0 0 0-.38-.048l-.13-.015a10.446 10.446 0 0 0-.385-.03l-.127-.008a10.475 10.475 0 0 0-1.026 0l-.127.008c-.129.008-.258.017-.385.03l-.13.015c-.127.014-.254.03-.38.049-.04.005-.078.012-.117.018-.13.022-.26.045-.389.07l-.1.021a10.27 10.27 0 0 0-.398.093l-.09.023a9.945 9.945 0 0 0-.397.113l-.084.026c-.13.041-.257.085-.384.13l-.092.034a9.849 9.849 0 0 0-.34.134c-.044.018-.088.035-.13.054-.07.03-.139.062-.207.093-3.092 1.405-5.385 4.283-5.969 7.725H36.181c-.584-3.442-2.877-6.32-5.968-7.724-.069-.032-.137-.064-.207-.094-.043-.019-.087-.036-.13-.054a10.745 10.745 0 0 0-.34-.134l-.093-.033c-.127-.046-.255-.09-.384-.13l-.084-.027a10.295 10.295 0 0 0-.884-.229l-.1-.02c-.13-.027-.26-.05-.39-.07l-.117-.02a10.155 10.155 0 0 0-.38-.048l-.13-.015a10.446 10.446 0 0 0-.385-.03c-.042-.003-.084-.007-.127-.009a10.475 10.475 0 0 0-1.025 0c-.043.002-.085.006-.128.01-.129.007-.257.016-.385.029l-.13.015c-.127.014-.254.03-.38.048l-.116.02c-.13.02-.26.043-.39.07l-.1.02c-.134.029-.266.06-.398.093l-.089.023c-.133.035-.266.073-.397.113l-.085.026c-.129.04-.256.085-.383.13l-.093.033c-.115.043-.227.088-.34.135l-.13.053c-.07.03-.138.062-.207.094-3.092 1.405-5.385 4.283-5.969 7.725H8.65c-2.941 0-5.19-2.249-5.19-5.19V59.8c0-2.595 1.903-4.843 4.498-5.017l10.553-1.384a30.532 30.532 0 0 0 19.548-10.206l2.595-2.941c1.384-1.73 3.287-3.46 5.017-4.152.865-.346 1.384-1.384 1.038-2.25-.346-.864-1.384-1.383-2.249-1.037-2.595.865-4.844 2.94-6.574 5.017l-2.422 2.768c-4.498 5.017-10.553 8.304-17.3 9.169L7.613 51.15C3.287 51.669 0 55.475 0 59.8v7.784c0 4.844 3.806 8.65 8.65 8.65h7.068c.83 4.893 5.112 8.65 10.231 8.65 5.12 0 9.402-3.757 10.232-8.65h34.895c.83 4.893 5.112 8.65 10.232 8.65 5.12 0 9.401-3.757 10.232-8.65h3.608c4.843 0 8.65-3.806 8.822-8.823v-12.11c0-4.497-3.633-8.303-8.13-8.649zM25.95 81.424c-3.807 0-6.92-3.114-6.92-6.92 0-3.805 3.113-6.92 6.92-6.92 3.805 0 6.92 3.115 6.92 6.92 0 3.806-3.115 6.92-6.92 6.92zm55.358 0c-3.806 0-6.92-3.114-6.92-6.92 0-3.805 3.114-6.92 6.92-6.92s6.92 3.115 6.92 6.92c0 3.806-3.114 6.92-6.92 6.92z"/>
    </g>
</svg>
