<svg xmlns="http://www.w3.org/2000/svg" width="104" height="104" viewBox="0 0 104 104">
    <g fill="#FFC500" fill-rule="nonzero">
        <path d="M31.72 44.893c-.867-1.04-2.253-1.56-3.64-1.56H17.333c-2.946 0-5.2 2.254-5.2 5.2v36.4c0 2.947 2.254 5.2 5.2 5.2h17.334c2.946 0 5.2-2.253 5.2-5.2V55.12c0-1.387-.52-2.6-1.56-3.64l-6.587-6.587zm4.68 40.04c0 1.04-.693 1.734-1.733 1.734H17.333c-1.04 0-1.733-.694-1.733-1.734v-36.4c0-1.04.693-1.733 1.733-1.733H28.08c.52 0 .867.173 1.213.52l6.587 6.587c.347.346.52.693.52 1.213v29.813zM67.08 58.76c.867.173 1.56.173 2.253.173 2.427 0 4.68-.866 6.414-2.426 2.426-2.08 3.813-5.027 3.813-8.147 0-1.56-.52-3.12-1.387-4.507l-.867-1.387c-1.213-1.906-2.426-3.813-3.466-5.893l-3.12-6.24c-.347-.693-.867-1.04-1.56-1.04-.694 0-1.214.52-1.56 1.04l-2.427 5.027c-1.213 2.6-2.6 5.373-4.507 7.8-1.04 1.387-1.56 2.947-1.733 4.68-.346 5.2 3.12 9.88 8.147 10.92zm-4.507-10.573c0-1.04.347-1.907 1.04-2.774 1.907-2.773 3.467-5.72 4.854-8.493l.866-1.907 1.56 3.12c1.04 2.254 2.427 4.16 3.64 6.24l1.04 1.56c.694.867.867 1.734.867 2.774 0 2.08-1.04 3.986-2.6 5.373-1.733 1.387-3.813 1.907-5.893 1.387-3.294-.694-5.547-3.814-5.374-7.28z"/>
        <path d="M27.733 57.2h-5.2c-1.04 0-1.733.693-1.733 1.733s.693 1.734 1.733 1.734h5.2c1.04 0 1.734-.694 1.734-1.734s-.694-1.733-1.734-1.733zM27.733 65.867h-5.2c-1.04 0-1.733.693-1.733 1.733s.693 1.733 1.733 1.733h5.2c1.04 0 1.734-.693 1.734-1.733s-.694-1.733-1.734-1.733zM27.733 74.533h-5.2c-1.04 0-1.733.694-1.733 1.734S21.493 78 22.533 78h5.2c1.04 0 1.734-.693 1.734-1.733s-.694-1.734-1.734-1.734z"/>
        <path d="M101.4 26.347L88.053 13c-1.56-1.733-3.813-2.6-6.066-2.6h-21.32V5.2c0-2.947-2.254-5.2-5.2-5.2h-6.934c-2.946 0-5.2 2.253-5.2 5.2v5.2c-4.853 0-8.666 3.813-8.666 8.667v10.916a8.62 8.62 0 0 0-2.947-.516H17.333v-5.2c0-2.947-2.253-5.2-5.2-5.2H8.667c-2.947 0-5.2 2.253-5.2 5.2v5.546C1.387 30.507 0 32.413 0 34.667V98.8c0 2.947 2.253 5.2 5.2 5.2H95.333c4.854 0 8.667-3.813 8.667-8.667v-62.92c0-2.253-1.04-4.506-2.6-6.066zm-52.867 15.6V26c0-1.04.694-1.733 1.734-1.733h27.56c1.386 0 2.6.52 3.64 1.56l7.106 7.106c1.04.867 1.56 2.254 1.56 3.64V88.4c0 1.04-.693 1.733-1.733 1.733H53.733c-1.04 0-1.733-.693-1.733-1.733V48.187c0-1.387-.52-2.6-1.56-3.64l-1.04-1.04-.347-.347c-.346-.347-.52-.693-.52-1.213zM3.467 98.8V34.667c0-1.04.693-1.734 1.733-1.734s1.733-.693 1.733-1.733v-6.933c0-1.04.694-1.733 1.734-1.733h3.466c1.04 0 1.734.693 1.734 1.733V31.2c0 1.04.693 1.733 1.733 1.733h16.12c1.387 0 2.6.52 3.64 1.56l11.613 11.614c1.04.866 1.56 2.253 1.56 3.64V98.8c0 1.04-.693 1.733-1.733 1.733H5.2c-1.04 0-1.733-.693-1.733-1.733zm97.066-3.467c0 2.947-2.253 5.2-5.2 5.2H51.721c.18-.538.279-1.12.279-1.733v-5.48c.539.181 1.12.28 1.733.28H88.4c2.947 0 5.2-2.253 5.2-5.2V36.573c0-2.253-1.04-4.506-2.6-6.066L83.893 23.4c-1.56-1.733-3.813-2.6-6.066-2.6h-27.56c-2.947 0-5.2 2.253-5.2 5.2v13.173l-6.934-6.933V19.067c0-2.947 2.254-5.2 5.2-5.2h1.734c1.04 0 1.733-.694 1.733-1.734V5.2c0-1.04.693-1.733 1.733-1.733h6.933c1.04 0 1.734.693 1.734 1.733v6.933c0 1.04.693 1.734 1.733 1.734h23.053c1.387 0 2.773.52 3.64 1.56l13.347 13.346c1.04.867 1.56 2.254 1.56 3.64v62.92z"/>
        <path d="M78 65.867H60.667c-1.04 0-1.734.693-1.734 1.733s.694 1.733 1.734 1.733H78c1.04 0 1.733-.693 1.733-1.733S79.04 65.867 78 65.867zM57.2 78h24.267c1.04 0 1.733-.693 1.733-1.733s-.693-1.734-1.733-1.734H57.2c-1.04 0-1.733.694-1.733 1.734S56.16 78 57.2 78z"/>
    </g>
</svg>
