<svg xmlns="http://www.w3.org/2000/svg" width="104" height="104" viewBox="0 0 104 104">
    <g fill="#FFC500" fill-rule="nonzero">
        <path d="M57.38 37.655A19.667 19.667 0 0 0 37.654 57.38 19.667 19.667 0 0 0 57.38 77.103 19.667 19.667 0 0 0 77.103 57.38 19.667 19.667 0 0 0 57.38 37.655zm0 35.862A16.07 16.07 0 0 1 41.24 57.38 16.07 16.07 0 0 1 57.38 41.241 16.07 16.07 0 0 1 73.517 57.38 16.07 16.07 0 0 1 57.38 73.517z"/>
        <path d="M57.38 48.414c-5.021 0-8.966 3.945-8.966 8.965 0 5.021 3.945 8.966 8.965 8.966 5.021 0 8.966-3.945 8.966-8.966 0-5.02-3.945-8.965-8.966-8.965zm0 14.345c-3.049 0-5.38-2.331-5.38-5.38C52 54.331 54.331 52 57.38 52c3.048 0 5.379 2.331 5.379 5.38 0 3.048-2.331 5.379-5.38 5.379zM57.38 82.483c-1.077 0-1.794.717-1.794 1.793s.717 1.793 1.793 1.793 1.794-.717 1.794-1.793-.718-1.793-1.794-1.793zM57.38 91.448c-1.077 0-1.794.718-1.794 1.793 0 1.076.717 1.794 1.793 1.794s1.794-.718 1.794-1.794c0-1.075-.718-1.793-1.794-1.793zM57.38 32.276c1.075 0 1.793-.717 1.793-1.793s-.718-1.793-1.794-1.793-1.793.717-1.793 1.793.717 1.793 1.793 1.793z"/>
        <path d="M69.03 12.197l.722-.721c.358-.359.538-.717.538-1.255 0-.538-.18-.897-.538-1.255a30.834 30.834 0 0 0-5.855-4.59 1.818 1.818 0 0 0-.55-.323 30.377 30.377 0 0 0-6.555-2.812 1.72 1.72 0 0 0-1.213-.333A30.157 30.157 0 0 0 48.234 0c-8.068 0-15.779 3.228-21.517 8.966L8.966 26.717C3.228 32.455 0 40.166 0 48.234c0 8.07 3.228 15.78 8.966 21.518.358.358.717.538 1.255.538.358 0 .896-.18 1.255-.538l.721-.722C17.505 89.416 35.902 104 57.38 104 83.021 104 104 83.02 104 57.38c0-21.478-14.584-39.875-34.97-45.183zM7.17 61.685l6.816-6.816c.717-.717.717-1.793 0-2.51-.717-.718-1.793-.718-2.51 0l-5.953 5.953A26.439 26.439 0 0 1 4.11 53.58c.115.022.238.034.373.034.358 0 .896-.18 1.255-.538L17.93 40.883c.717-.718.717-1.794 0-2.51-.717-.718-1.793-.718-2.51 0L3.65 50.14a26.87 26.87 0 0 1 7.824-20.914l17.752-17.751a26.87 26.87 0 0 1 19.007-7.89c1.307 0 2.593.092 3.854.27l-12.64 12.64c-.717.718-.717 1.794 0 2.511.359.359.717.538 1.255.538.359 0 .897-.18 1.255-.538L56.194 4.772c1.236.38 2.442.85 3.611 1.408L52 13.986c-.717.717-.717 1.793 0 2.51.359.36.717.538 1.255.538.538 0 .897-.179 1.255-.537l8.508-8.508a28.784 28.784 0 0 1 2.968 2.232l-1.793 1.793-52.18 52.18a1.292 1.292 0 0 0-.348.348l-1.444 1.444a28.45 28.45 0 0 1-3.051-4.3zm50.21 38.729c-20.442 0-38.014-14.345-42.139-34.428l50.745-50.745c20.083 4.124 34.428 21.697 34.428 42.138 0 23.67-19.366 43.035-43.035 43.035z"/>
        <path d="M93.241 55.586c-1.076 0-1.793.717-1.793 1.793s.717 1.794 1.793 1.794 1.793-.718 1.793-1.794-.717-1.793-1.793-1.793zM84.276 55.586c-1.076 0-1.793.717-1.793 1.793s.717 1.794 1.793 1.794 1.793-.718 1.793-1.794-.717-1.793-1.793-1.793zM37.117 75.131c-.717.717-.717 1.793 0 2.51.717.718 1.793.718 2.51 0 .718-.717.718-1.793 0-2.51-.717-.717-1.793-.717-2.51 0zM30.841 81.407c-.717.717-.717 1.793 0 2.51.718.717 1.793.717 2.51 0 .718-.717.718-1.793 0-2.51-.717-.717-1.972-.717-2.51 0zM83.917 33.352c.717-.718.717-1.793 0-2.51-.538-.718-1.793-.718-2.51 0-.717.717-.717 1.792 0 2.51.717.717 1.793.717 2.51 0zM75.131 37.117c-.717.717-.717 1.793 0 2.51.717.718 1.793.718 2.51 0 .718-.717.718-1.793 0-2.51-.717-.717-1.793-.717-2.51 0zM81.407 81.407c-.717.717-.717 1.793 0 2.51.717.717 1.793.717 2.51 0 .717-.538.717-1.793 0-2.51-.717-.717-1.793-.717-2.51 0zM75.131 75.131c-.717.717-.717 1.793 0 2.51.717.718 1.793.718 2.51 0 .718-.717.718-1.793 0-2.51-.717-.717-1.793-.717-2.51 0z"/>
    </g>
</svg>
