<svg xmlns="http://www.w3.org/2000/svg" width="61" height="104" viewBox="0 0 61 104">
    <path fill="#FFC500" fill-rule="nonzero" d="M36.535 78c-5.129 0-9.42-3.765-10.251-8.667h1.585c1.04 0 1.733-.693 1.733-1.733v-5.2h6.933c1.04 0 1.734-.693 1.734-1.733V12.133c0-1.04-.694-1.733-1.734-1.733h-5.2V1.733C31.335.693 30.642 0 29.602 0h-6.933c-1.04 0-1.734.693-1.734 1.733V10.4h-5.2V1.733C15.735.693 15.042 0 14.002 0H7.07c-1.04 0-1.734.693-1.734 1.733V10.4H1.87c-1.04 0-1.734.693-1.734 1.733v48.534c0 1.04.694 1.733 1.734 1.733h6.933v5.2c0 1.04.693 1.733 1.733 1.733h1.797c.896 12.546 11.44 22.533 24.203 22.533 5.72 0 10.4 4.68 10.4 10.4 0 1.04.694 1.734 1.734 1.734h10.4c1.04 0 1.733-.694 1.733-1.734C60.802 88.92 49.882 78 36.535 78zM24.402 3.467h3.467V10.4h-3.467V3.467zm-15.6 0h3.467V10.4H8.802V3.467zm-5.2 52h6.933c1.04 0 1.734-.694 1.734-1.734S11.575 52 10.535 52H3.602v-3.467h10.4c1.04 0 1.733-.693 1.733-1.733s-.693-1.733-1.733-1.733h-10.4v-31.2h31.2v3.466h-6.933c-1.04 0-1.734.694-1.734 1.734S26.83 20.8 27.87 20.8h6.933v3.467h-10.4c-1.04 0-1.733.693-1.733 1.733s.693 1.733 1.733 1.733h10.4v31.2h-31.2v-3.466zM26.135 62.4v3.467H12.27V62.4h13.866zm24.094 38.133c-.867-6.76-6.587-12.133-13.694-12.133-10.92 0-19.933-8.32-20.8-19.067h6.934c.866 6.76 6.586 12.134 13.693 12.134 10.92 0 19.933 8.32 20.8 19.066h-6.933z"/>
</svg>
