<svg xmlns="http://www.w3.org/2000/svg" width="56" height="104" viewBox="0 0 56 104">
    <path fill="#FFC500" fill-rule="nonzero" d="M55.041 49.053l-3.466-3.466c-.347-.347-.694-.52-1.214-.52H38.228V17.333c0-3.55-2.021-6.09-5.2-6.757v-7.11A3.477 3.477 0 0 0 29.561 0h-3.466a3.477 3.477 0 0 0-3.467 3.467v7.109c-3.178.668-5.2 3.207-5.2 6.757v27.734H5.295c-.52 0-.867.173-1.213.52L.615 49.053c-.347.347-.52.694-.52 1.214V57.2c0 .52.173.867.52 1.213l3.467 3.467c.346.347.693.52 1.213.52h5.2v5.2c0 1.04.693 1.733 1.733 1.733h3.467v28.08A6.584 6.584 0 0 0 22.282 104h5.546c1.04 0 1.733-.693 1.733-1.733s-.693-1.734-1.733-1.734h-5.547a3.107 3.107 0 0 1-3.12-3.12V86.667h3.467v5.2a3.477 3.477 0 0 0 3.467 3.466h3.467a3.477 3.477 0 0 0 3.466-3.466v-5.2h5.2c1.04 0 1.734-.694 1.734-1.734v-15.6h3.466c1.04 0 1.733-.693 1.733-1.733v-5.2h5.2c.52 0 .867-.173 1.214-.52l3.466-3.467c.347-.346.52-.693.52-1.213v-6.933c0-.52-.173-.867-.52-1.214zm-35.88 9.88v-10.4h17.334v10.4H19.16zm6.934-55.466h3.467V10.4h-3.467V3.467zm-5.2 13.866c0-2.253 1.213-3.466 3.467-3.466h6.933c2.253 0 3.467 1.213 3.467 3.466v27.734H20.895V17.333zM3.56 56.507V50.96l2.427-2.427h9.707v10.4H5.988l-2.427-2.426zm26 35.36h-3.466v-5.2h3.466v5.2zM36.495 72.8h-6.933c-1.04 0-1.734.693-1.734 1.733s.694 1.734 1.734 1.734h6.933V83.2H19.162v-3.467h5.2c1.04 0 1.733-.693 1.733-1.733s-.693-1.733-1.733-1.733h-5.2v-6.934h17.333V72.8zm5.2-6.933H13.96V62.4H41.695v3.467zm10.4-9.36l-2.427 2.426h-9.707v-10.4h9.707l2.427 2.427v5.547z"/>
</svg>
