<svg xmlns="http://www.w3.org/2000/svg" width="65" height="104" viewBox="0 0 65 104">
    <g fill="#FFC500" fill-rule="nonzero">
        <path d="M20.776 8.705h-6.92c-2.767 0-5.19 2.422-5.19 5.19v1.73c0 2.768 2.423 5.19 5.19 5.19h6.92c2.768 0 5.19-2.422 5.19-5.19v-1.73c0-2.768-2.422-5.19-5.19-5.19zm1.73 6.92c0 .865-.865 1.73-1.73 1.73h-6.92c-.865 0-1.73-.865-1.73-1.73v-1.73c0-.865.866-1.73 1.73-1.73h6.92c.865 0 1.73.865 1.73 1.73v1.73z"/>
        <path d="M63.16 85.17l-2.768-9.343c-.173-.519-.692-1.038-1.21-1.21l-1.558-.52 1.038-1.21c.346-.346.52-1.038.346-1.557l-7.347-24.49.254-.076c5.363-1.557 8.477-7.265 6.92-12.801L50.877 7.32c-1.556-5.363-7.265-8.477-12.801-6.92l-7.138 2.127A10.325 10.325 0 0 0 24.236.055h-13.84C4.689.055.017 4.726.017 10.435v27.68c0 5.708 4.672 10.379 10.38 10.379v13.84c0 .692.347 1.21.692 1.384l3.114 2.076-3.114 2.076c-.346.346-.691.865-.691 1.384v13.32c0 .52.346 1.038.865 1.384l1.21.865-1.384 1.038c-.346.346-.691.865-.691 1.384v1.038c0 4.844 1.384 9.688 3.805 13.84.692 1.038 1.903 1.73 3.114 1.73 1.211 0 2.422-.692 2.941-1.73 2.595-4.325 3.98-8.996 3.98-13.84v-9.86c0-.52-.174-1.038-.693-1.384l-1.384-.865 1.384-.865c.346-.346.692-.865.692-1.384v-25.43c1.301 0 2.548-.246 3.698-.688 1.945 2.194 4.744 3.455 7.547 3.455.918 0 1.836-.136 2.754-.406l3.993 13.208c.173.519.692 1.038 1.21 1.21l3.46 1.038-2.248 2.768c-.346.346-.52 1.038-.346 1.557L48.11 83.44c.173.519.692 1.038 1.21 1.21l1.557.52-1.037 1.21c-.347.347-.52 1.039-.347 1.558l.347 1.038c1.21 4.325 4.151 8.65 7.957 12.282.692.52 1.557.866 2.422.866.346 0 .692 0 1.211.172 1.211-.346 2.076-1.384 2.422-2.594 1.038-4.498.865-9.342-.692-14.532zM38.249 13.03c.346 0 .865 0 1.21.173.347.173.52.519.693.865l.518 1.903c0 .346 0 .865-.172 1.21-.173.347-.52.52-.865.693l-5.017 1.557v-5.363l3.633-1.038zM20.776 73.06l-2.768 1.73c-.346.345-.691.691-.691 1.383 0 .692.346 1.211.691 1.557l2.768 1.73v8.823c0 4.152-1.21 8.304-3.46 12.11l1.557.864-1.73-.865c-2.076-3.632-3.286-7.784-3.286-12.11v-.172l2.767-1.903c.346-.346.692-.865.692-1.384 0-.52-.346-1.038-.865-1.384l-2.595-1.73V70.29l4.498-3.114c.346-.346.692-.865.692-1.384 0-.519-.346-1.038-.692-1.384l-4.498-2.94V48.493h6.92v24.565zm1.73-28.026H10.396c-3.805 0-6.92-3.114-6.92-6.92V10.435c0-3.806 3.115-6.92 6.92-6.92h13.84c3.806 0 6.92 3.114 6.92 6.92v1.546c-.11.225-.173.464-.173.703v8.996c0 .228.069.454.173.667v15.767c0 3.806-3.114 6.92-6.92 6.92h-1.73zm8.477 1.038a11.928 11.928 0 0 0 2.005-2.4 10.38 10.38 0 0 0 1.35-3.191l.04-.167c.025-.116.047-.233.068-.35.012-.065.025-.13.036-.196.018-.113.033-.226.047-.34.009-.069.02-.137.027-.207.013-.12.021-.242.03-.363l.014-.187c.01-.184.016-.37.016-.556V22.752l5.882-1.764c1.21-.346 2.248-1.211 2.94-2.422.52-1.211.692-2.595.347-3.806l-.52-1.903c-.345-1.211-1.21-2.249-2.421-2.941-1.211-.52-2.595-.692-3.806-.346l-2.425.693a10.27 10.27 0 0 0-.688-3.535 17.183 17.183 0 0 0-.52-1.31l5.709-1.73c3.633-1.038 7.439 1.038 8.477 4.67l7.957 26.815c1.038 3.633-1.038 7.439-4.67 8.477l-1.505.45a1.313 1.313 0 0 0-.399.069L38.941 47.11c-.29.048-.537.166-.739.326l-.645.193c-2.422.692-4.844 0-6.574-1.557zm29.236 52.59h-.173c-3.46-3.113-5.881-6.919-7.093-10.898l2.076-2.249c.346-.346.52-1.038.346-1.557-.172-.519-.691-1.038-1.21-1.21l-3.114-1.039-3.287-10.898 3.46-4.152c.346-.346.519-1.038.346-1.557-.173-.52-.692-1.038-1.211-1.211l-5.017-1.557-3.633-12.456 6.574-1.903 6.92 23.355-2.076 2.422c-.346.346-.52 1.038-.346 1.557.173.519.692 1.038 1.21 1.21l3.115 1.038 2.422 8.477c1.383 4.67 1.73 8.823.691 12.629z"/>
    </g>
</svg>
