<?xml version="1.0" encoding="utf-8"?><svg xmlns="http://www.w3.org/2000/svg" xmlns:xlink="http://www.w3.org/1999/xlink"><symbol class="aasvg-inline--fa aafa-arrow-left aafa-w-14" viewBox="0 0 448 512" id="arrow-left" xmlns="http://www.w3.org/2000/svg"><path d="M257.5 445.1l-22.2 22.2c-9.4 9.4-24.6 9.4-33.9 0L7 273c-9.4-9.4-9.4-24.6 0-33.9L201.4 44.7c9.4-9.4 24.6-9.4 33.9 0l22.2 22.2c9.5 9.5 9.3 25-.4 34.3L136.6 216H424c13.3 0 24 10.7 24 24v32c0 13.3-10.7 24-24 24H136.6l120.5 114.8c9.8 9.3 10 24.8.4 34.3z"/></symbol><symbol class="absvg-inline--fa abfa-arrow-right abfa-w-14" viewBox="0 0 448 512" id="arrow-right" xmlns="http://www.w3.org/2000/svg"><path d="M190.5 66.9l22.2-22.2c9.4-9.4 24.6-9.4 33.9 0L441 239c9.4 9.4 9.4 24.6 0 33.9L246.6 467.3c-9.4 9.4-24.6 9.4-33.9 0l-22.2-22.2c-9.5-9.5-9.3-25 .4-34.3L311.4 296H24c-13.3 0-24-10.7-24-24v-32c0-13.3 10.7-24 24-24h287.4L190.9 101.2c-9.8-9.3-10-24.8-.4-34.3z"/></symbol><symbol class="acsvg-inline--fa acfa-balance-scale acfa-w-20" viewBox="0 0 640 512" id="balance" xmlns="http://www.w3.org/2000/svg"><path d="M256 336h-.02c0-16.18 1.34-8.73-85.05-181.51-17.65-35.29-68.19-35.36-85.87 0C-2.06 328.75.02 320.33.02 336H0c0 44.18 57.31 80 128 80s128-35.82 128-80zM128 176l72 144H56l72-144zm511.98 160c0-16.18 1.34-8.73-85.05-181.51-17.65-35.29-68.19-35.36-85.87 0-87.12 174.26-85.04 165.84-85.04 181.51H384c0 44.18 57.31 80 128 80s128-35.82 128-80h-.02zM440 320l72-144 72 144H440zm88 128H352V153.25c23.51-10.29 41.16-31.48 46.39-57.25H528c8.84 0 16-7.16 16-16V48c0-8.84-7.16-16-16-16H383.64C369.04 12.68 346.09 0 320 0s-49.04 12.68-63.64 32H112c-8.84 0-16 7.16-16 16v32c0 8.84 7.16 16 16 16h129.61c5.23 25.76 22.87 46.96 46.39 57.25V448H112c-8.84 0-16 7.16-16 16v32c0 8.84 7.16 16 16 16h416c8.84 0 16-7.16 16-16v-32c0-8.84-7.16-16-16-16z"/></symbol><symbol class="adsvg-inline--fa adfa-shopping-basket adfa-w-18" viewBox="0 0 576 512" id="basket" xmlns="http://www.w3.org/2000/svg"><path d="M576 216v16c0 13.255-10.745 24-24 24h-8l-26.113 182.788C514.509 462.435 494.257 480 470.37 480H105.63c-23.887 0-44.139-17.565-47.518-41.212L32 256h-8c-13.255 0-24-10.745-24-24v-16c0-13.255 10.745-24 24-24h67.341l106.78-146.821c10.395-14.292 30.407-17.453 44.701-7.058 14.293 10.395 17.453 30.408 7.058 44.701L170.477 192h235.046L326.12 82.821c-10.395-14.292-7.234-34.306 7.059-44.701 14.291-10.395 34.306-7.235 44.701 7.058L484.659 192H552c13.255 0 24 10.745 24 24zM312 392V280c0-13.255-10.745-24-24-24s-24 10.745-24 24v112c0 13.255 10.745 24 24 24s24-10.745 24-24zm112 0V280c0-13.255-10.745-24-24-24s-24 10.745-24 24v112c0 13.255 10.745 24 24 24s24-10.745 24-24zm-224 0V280c0-13.255-10.745-24-24-24s-24 10.745-24 24v112c0 13.255 10.745 24 24 24s24-10.745 24-24z"/></symbol><symbol class="aesvg-inline--fa aefa-bookmark aefa-w-12" viewBox="0 0 384 512" id="bookmark" xmlns="http://www.w3.org/2000/svg"><path d="M336 0H48C21.49 0 0 21.49 0 48v464l192-112 192 112V48c0-26.51-21.49-48-48-48zm0 428.43l-144-84-144 84V54a6 6 0 0 1 6-6h276c3.314 0 6 2.683 6 5.996V428.43z"/></symbol><symbol class="afsvg-inline--fa affa-calendar-alt affa-w-14" viewBox="0 0 448 512" id="calendar" xmlns="http://www.w3.org/2000/svg"><path d="M436 160H12c-6.6 0-12-5.4-12-12v-36c0-26.5 21.5-48 48-48h48V12c0-6.6 5.4-12 12-12h40c6.6 0 12 5.4 12 12v52h128V12c0-6.6 5.4-12 12-12h40c6.6 0 12 5.4 12 12v52h48c26.5 0 48 21.5 48 48v36c0 6.6-5.4 12-12 12zM12 192h424c6.6 0 12 5.4 12 12v260c0 26.5-21.5 48-48 48H48c-26.5 0-48-21.5-48-48V204c0-6.6 5.4-12 12-12zm116 204c0-6.6-5.4-12-12-12H76c-6.6 0-12 5.4-12 12v40c0 6.6 5.4 12 12 12h40c6.6 0 12-5.4 12-12v-40zm0-128c0-6.6-5.4-12-12-12H76c-6.6 0-12 5.4-12 12v40c0 6.6 5.4 12 12 12h40c6.6 0 12-5.4 12-12v-40zm128 128c0-6.6-5.4-12-12-12h-40c-6.6 0-12 5.4-12 12v40c0 6.6 5.4 12 12 12h40c6.6 0 12-5.4 12-12v-40zm0-128c0-6.6-5.4-12-12-12h-40c-6.6 0-12 5.4-12 12v40c0 6.6 5.4 12 12 12h40c6.6 0 12-5.4 12-12v-40zm128 128c0-6.6-5.4-12-12-12h-40c-6.6 0-12 5.4-12 12v40c0 6.6 5.4 12 12 12h40c6.6 0 12-5.4 12-12v-40zm0-128c0-6.6-5.4-12-12-12h-40c-6.6 0-12 5.4-12 12v40c0 6.6 5.4 12 12 12h40c6.6 0 12-5.4 12-12v-40z"/></symbol><symbol class="agsvg-inline--fa agfa-car agfa-w-16" viewBox="0 0 512 512" id="car-solid" xmlns="http://www.w3.org/2000/svg"><path d="M499.99 176h-59.87l-16.64-41.6C406.38 91.63 365.57 64 319.5 64h-127c-46.06 0-86.88 27.63-103.99 70.4L71.87 176H12.01C4.2 176-1.53 183.34.37 190.91l6 24C7.7 220.25 12.5 224 18.01 224h20.07C24.65 235.73 16 252.78 16 272v48c0 16.12 6.16 30.67 16 41.93V416c0 17.67 14.33 32 32 32h32c17.67 0 32-14.33 32-32v-32h256v32c0 17.67 14.33 32 32 32h32c17.67 0 32-14.33 32-32v-54.07c9.84-11.25 16-25.8 16-41.93v-48c0-19.22-8.65-36.27-22.07-48H494c5.51 0 10.31-3.75 11.64-9.09l6-24c1.89-7.57-3.84-14.91-11.65-14.91zm-352.06-17.83c7.29-18.22 24.94-30.17 44.57-30.17h127c19.63 0 37.28 11.95 44.57 30.17L384 208H128l19.93-49.83zM96 319.8c-19.2 0-32-12.76-32-31.9S76.8 256 96 256s48 28.71 48 47.85-28.8 15.95-48 15.95zm320 0c-19.2 0-48 3.19-48-15.95S396.8 256 416 256s32 12.76 32 31.9-12.8 31.9-32 31.9z"/></symbol><symbol class="ahsvg-inline--fa ahfa-caret-down ahfa-w-10" viewBox="0 0 320 512" id="caret-down-solid" xmlns="http://www.w3.org/2000/svg"><path d="M31.3 192h257.3c17.8 0 26.7 21.5 14.1 34.1L174.1 354.8c-7.8 7.8-20.5 7.8-28.3 0L17.2 226.1C4.6 213.5 13.5 192 31.3 192z"/></symbol><symbol class="aisvg-inline--fa aifa-chevron-down aifa-w-14" viewBox="0 0 448 512" id="chevron-down-solid" xmlns="http://www.w3.org/2000/svg"><path d="M207.029 381.476L12.686 187.132c-9.373-9.373-9.373-24.569 0-33.941l22.667-22.667c9.357-9.357 24.522-9.375 33.901-.04L224 284.505l154.745-154.021c9.379-9.335 24.544-9.317 33.901.04l22.667 22.667c9.373 9.373 9.373 24.569 0 33.941L240.971 381.476c-9.373 9.372-24.569 9.372-33.942 0z"/></symbol><symbol class="ajsvg-inline--fa ajfa-times-circle ajfa-w-16" viewBox="0 0 512 512" id="close-circle" xmlns="http://www.w3.org/2000/svg"><path d="M256 8C119 8 8 119 8 256s111 248 248 248 248-111 248-248S393 8 256 8zm0 448c-110.5 0-200-89.5-200-200S145.5 56 256 56s200 89.5 200 200-89.5 200-200 200zm101.8-262.2L295.6 256l62.2 62.2c4.7 4.7 4.7 12.3 0 17l-22.6 22.6c-4.7 4.7-12.3 4.7-17 0L256 295.6l-62.2 62.2c-4.7 4.7-12.3 4.7-17 0l-22.6-22.6c-4.7-4.7-4.7-12.3 0-17l62.2-62.2-62.2-62.2c-4.7-4.7-4.7-12.3 0-17l22.6-22.6c4.7-4.7 12.3-4.7 17 0l62.2 62.2 62.2-62.2c4.7-4.7 12.3-4.7 17 0l22.6 22.6c4.7 4.7 4.7 12.3 0 17z"/></symbol><symbol class="aksvg-inline--fa akfa-caret-down akfa-w-10" viewBox="0 0 320 512" id="dropdown" xmlns="http://www.w3.org/2000/svg"><path d="M31.3 192h257.3c17.8 0 26.7 21.5 14.1 34.1L174.1 354.8c-7.8 7.8-20.5 7.8-28.3 0L17.2 226.1C4.6 213.5 13.5 192 31.3 192z"/></symbol><symbol class="alsvg-inline--fa alfa-sign-in-alt alfa-w-16" viewBox="0 0 512 512" id="enter" xmlns="http://www.w3.org/2000/svg"><path d="M416 448h-84c-6.6 0-12-5.4-12-12v-40c0-6.6 5.4-12 12-12h84c17.7 0 32-14.3 32-32V160c0-17.7-14.3-32-32-32h-84c-6.6 0-12-5.4-12-12V76c0-6.6 5.4-12 12-12h84c53 0 96 43 96 96v192c0 53-43 96-96 96zm-47-201L201 79c-15-15-41-4.5-41 17v96H24c-13.3 0-24 10.7-24 24v96c0 13.3 10.7 24 24 24h136v96c0 21.5 26 32 41 17l168-168c9.3-9.4 9.3-24.6 0-34z"/></symbol><symbol class="amsvg-inline--fa amfa-facebook amfa-w-14" viewBox="0 0 448 512" id="facebook" xmlns="http://www.w3.org/2000/svg"><path d="M448 56.7v398.5c0 13.7-11.1 24.7-24.7 24.7H309.1V306.5h58.2l8.7-67.6h-67v-43.2c0-19.6 5.4-32.9 33.5-32.9h35.8v-60.5c-6.2-.8-27.4-2.7-52.2-2.7-51.6 0-87 31.5-87 89.4v49.9h-58.4v67.6h58.4V480H24.7C11.1 480 0 468.9 0 455.3V56.7C0 43.1 11.1 32 24.7 32h398.5c13.7 0 24.8 11.1 24.8 24.7z"/></symbol><symbol class="ansvg-inline--fa anfa-google-plus-square anfa-w-14" viewBox="0 0 448 512" id="google" xmlns="http://www.w3.org/2000/svg"><path d="M400 32H48C21.5 32 0 53.5 0 80v352c0 26.5 21.5 48 48 48h352c26.5 0 48-21.5 48-48V80c0-26.5-21.5-48-48-48zM164 356c-55.3 0-100-44.7-100-100s44.7-100 100-100c27 0 49.5 9.8 67 26.2l-27.1 26.1c-7.4-7.1-20.3-15.4-39.8-15.4-34.1 0-61.9 28.2-61.9 63.2 0 34.9 27.8 63.2 61.9 63.2 39.6 0 54.4-28.5 56.8-43.1H164v-34.4h94.4c1 5 1.6 10.1 1.6 16.6 0 57.1-38.3 97.6-96 97.6zm220-81.8h-29v29h-29.2v-29h-29V245h29v-29H355v29h29v29.2z"/></symbol><symbol class="aosvg-inline--fa aofa-keycdn aofa-w-16" viewBox="0 0 512 512" id="keycdn" xmlns="http://www.w3.org/2000/svg"><path d="M63.8 409.3l60.5-59c32.1 42.8 71.1 66 126.6 67.4 30.5.7 60.3-7 86.4-22.4 5.1 5.3 18.5 19.5 20.9 22-32.2 20.7-69.6 31.1-108.1 30.2-43.3-1.1-84.6-16.7-117.7-44.4.3-.6-38.2 37.5-38.6 37.9 9.5 29.8-13.1 62.4-46.3 62.4C20.7 503.3 0 481.7 0 454.9c0-34.3 33.1-56.6 63.8-45.6zm354.9-252.4c19.1 31.3 29.6 67.4 28.7 104-1.1 44.8-19 87.5-48.6 121 .3.3 23.8 25.2 24.1 25.5 9.6-1.3 19.2 2 25.9 9.1 11.3 12 10.9 30.9-1.1 42.4-12 11.3-30.9 10.9-42.4-1.1-6.7-7-9.4-16.8-7.6-26.3-24.9-26.6-44.4-47.2-44.4-47.2 42.7-34.1 63.3-79.6 64.4-124.2.7-28.9-7.2-57.2-21.1-82.2l22.1-21zM104 53.1c6.7 7 9.4 16.8 7.6 26.3l45.9 48.1c-4.7 3.8-13.3 10.4-22.8 21.3-25.4 28.5-39.6 64.8-40.7 102.9-.7 28.9 6.1 57.2 20 82.4l-22 21.5C72.7 324 63.1 287.9 64.2 250.9c1-44.6 18.3-87.6 47.5-121.1l-25.3-26.4c-9.6 1.3-19.2-2-25.9-9.1-11.3-12-10.9-30.9 1.1-42.4C73.5 40.7 92.2 41 104 53.1zM464.9 8c26 0 47.1 22.4 47.1 48.3S490.9 104 464.9 104c-6.3.1-14-1.1-15.9-1.8l-62.9 59.7c-32.7-43.6-76.7-65.9-126.9-67.2-30.5-.7-60.3 6.8-86.2 22.4l-21.1-22C184.1 74.3 221.5 64 260 64.9c43.3 1.1 84.6 16.7 117.7 44.6l41.1-38.6c-1.5-4.7-2.2-9.6-2.2-14.5C416.5 29.7 438.9 8 464.9 8zM256.7 113.4c5.5 0 10.9.4 16.4 1.1 78.1 9.8 133.4 81.1 123.8 159.1-9.8 78.1-81.1 133.4-159.1 123.8-78.1-9.8-133.4-81.1-123.8-159.2 9.3-72.4 70.1-124.6 142.7-124.8zm-59 119.4c.6 22.7 12.2 41.8 32.4 52.2l-11 51.7h73.7l-11-51.7c20.1-10.9 32.1-29 32.4-52.2-.4-32.8-25.8-57.5-58.3-58.3-32.1.8-57.3 24.8-58.2 58.3zM256 160"/></symbol><symbol class="apsvg-inline--fa apfa-list-ul apfa-w-16" viewBox="0 0 512 512" id="list-ul-solid" xmlns="http://www.w3.org/2000/svg"><path d="M96 96c0 26.51-21.49 48-48 48S0 122.51 0 96s21.49-48 48-48 48 21.49 48 48zM48 208c-26.51 0-48 21.49-48 48s21.49 48 48 48 48-21.49 48-48-21.49-48-48-48zm0 160c-26.51 0-48 21.49-48 48s21.49 48 48 48 48-21.49 48-48-21.49-48-48-48zm96-236h352c8.837 0 16-7.163 16-16V76c0-8.837-7.163-16-16-16H144c-8.837 0-16 7.163-16 16v40c0 8.837 7.163 16 16 16zm0 160h352c8.837 0 16-7.163 16-16v-40c0-8.837-7.163-16-16-16H144c-8.837 0-16 7.163-16 16v40c0 8.837 7.163 16 16 16zm0 160h352c8.837 0 16-7.163 16-16v-40c0-8.837-7.163-16-16-16H144c-8.837 0-16 7.163-16 16v40c0 8.837 7.163 16 16 16z"/></symbol><symbol viewBox="0 0 446.5 89" id="logo" xmlns="http://www.w3.org/2000/svg"><defs><style>.aqcls-1{fill:#ff0}.aqcls-2{fill:#fff}</style></defs><circle class="aqcls-1" cx="44.5" cy="44.5" r="44.5"/><path class="aqcls-2" d="M79.22 30.5H37.5a1 1 0 0 1-1-1v-6a1 1 0 0 1 1-1h40.22a1 1 0 0 1 1 .76l1.5 6a1 1 0 0 1-1 1.24zm2.28 17v-6a1 1 0 0 0-1-1h-56a2 2 0 0 0-2 2v22a2 2 0 0 0 2 2h54.22a1 1 0 0 0 1-.76l1.5-6a1 1 0 0 0-1-1.24H31.5a1 1 0 0 1-1-1v-8a1 1 0 0 1 1-1h49a1 1 0 0 0 1-1zm38.81-17h35.19a1 1 0 0 0 1-1v-6a1 1 0 0 0-1-1h-40c-9 0-19 8-19 22.22 0 13.78 10 21.78 19 21.78h40a1 1 0 0 0 1-1v-6a1 1 0 0 0-1-1h-35.19c-4.81 0-15.81 0-15.81-13.78 0-14.22 11-14.22 15.81-14.22zm105.19 14a10.5 10.5 0 0 0 5-9c0-6-4-13-13-13h-51a2 2 0 0 0-2 2v41a1 1 0 0 0 1 1h6a1 1 0 0 0 1-1v-17h44a6 6 0 0 1 6 6v11a1 1 0 0 0 1 1h5.94a1 1 0 0 0 1-1V53.66c.06-3.16-.94-7.16-4.94-9.16zm-8-4h-45v-10h45a5 5 0 0 1 0 10zm145 0h-39a5 5 0 0 1 0-10h48a1 1 0 0 0 1-1v-6a1 1 0 0 0-1-1h-49a12 12 0 0 0-12 12v2a12 12 0 0 0 12 12h39a5 5 0 0 1 0 10h-48a1 1 0 0 0-1 1v6a1 1 0 0 0 1 1h49a12 12 0 0 0 12-12v-2a12 12 0 0 0-12-12zm72 0h-39a5 5 0 0 1 0-10h48a1 1 0 0 0 1-1v-6a1 1 0 0 0-1-1h-49a12 12 0 0 0-12 12v2a12 12 0 0 0 12 12h39a5 5 0 0 1 0 10h-48a1 1 0 0 0-1 1v6a1 1 0 0 0 1 1h49a12 12 0 0 0 12-12v-2a12 12 0 0 0-12-12zm-147-18h-34a15 15 0 0 0-15 15v14a15 15 0 0 0 15 15h34a15 15 0 0 0 15-15v-14a15 15 0 0 0-15-15zm7 29a7 7 0 0 1-7 7h-34a7 7 0 0 1-7-7v-6h48zm0-8h-48v-6a7 7 0 0 1 7-7h34a7 7 0 0 1 7 7z"/></symbol><symbol viewBox="0 0 159 32" id="logo1" xmlns="http://www.w3.org/2000/svg"><ellipse cx="15.829" cy="16" rx="15.829" ry="16"/><path d="M28.179 10.966h-14.84a.358.358 0 0 1-.356-.36V8.45c0-.198.16-.36.356-.36h14.306a.356.356 0 0 1 .356.274l.534 2.157a.363.363 0 0 1-.069.313.354.354 0 0 1-.287.133zm.811 6.113V14.92c0-.198-.16-.36-.356-.36H8.714a.715.715 0 0 0-.71.72v7.91c0 .397.318.72.71.72h19.287a.356.356 0 0 0 .356-.274l.533-2.157a.363.363 0 0 0-.068-.313.354.354 0 0 0-.287-.133h-17.33a.358.358 0 0 1-.356-.36v-2.876c0-.199.16-.36.356-.36h17.43a.358.358 0 0 0 .355-.36zM42.795 10.966h12.517a.358.358 0 0 0 .356-.36V8.45c0-.198-.16-.36-.356-.36H41.084c-3.201 0-6.758 2.877-6.758 7.99 0 4.955 3.557 7.831 6.758 7.831h14.228a.358.358 0 0 0 .356-.36v-2.157c0-.198-.16-.36-.356-.36H42.795c-1.711 0-5.624 0-5.624-4.954 0-5.113 3.913-5.113 5.624-5.113zM80.211 16a3.785 3.785 0 0 0 1.779-3.236c0-2.157-1.423-4.674-4.624-4.674H59.225a.715.715 0 0 0-.712.719v14.742c0 .198.16.36.356.36h2.134a.358.358 0 0 0 .356-.36v-6.113H77.01c1.179 0 2.134.966 2.134 2.158v3.955c0 .198.16.36.356.36h2.113a.358.358 0 0 0 .356-.36v-4.258c.02-1.136-.335-2.574-1.758-3.293zm-2.845-1.438H61.359v-3.596h16.007c.982 0 1.778.805 1.778 1.798s-.796 1.798-1.778 1.798zm51.577 0H115.07a1.788 1.788 0 0 1-1.778-1.798c0-.993.796-1.798 1.778-1.798h17.074a.358.358 0 0 0 .356-.36V8.45c0-.198-.16-.36-.356-.36h-17.43c-2.357 0-4.268 1.933-4.268 4.315v.72c0 2.382 1.911 4.314 4.269 4.314h13.872c.983 0 1.779.805 1.779 1.798s-.797 1.798-1.779 1.798h-17.074a.358.358 0 0 0-.355.36v2.157c0 .198.159.36.355.36h17.43c2.357 0 4.268-1.933 4.268-4.315v-.72c0-2.382-1.91-4.314-4.268-4.314zm25.611 0H140.68a1.788 1.788 0 0 1-1.778-1.798c0-.993.796-1.798 1.778-1.798h17.074a.358.358 0 0 0 .356-.36V8.45c0-.198-.16-.36-.356-.36h-17.43c-2.357 0-4.268 1.933-4.268 4.315v.72c0 2.382 1.911 4.314 4.269 4.314h13.872c.982 0 1.779.805 1.779 1.798s-.797 1.798-1.779 1.798h-17.074a.358.358 0 0 0-.356.36v2.157c0 .198.16.36.356.36h17.43c2.357 0 4.268-1.933 4.268-4.315v-.72c0-2.382-1.91-4.314-4.268-4.314zM102.265 8.09H90.171c-2.947 0-5.335 2.415-5.335 5.393v5.034c0 2.978 2.388 5.393 5.335 5.393h12.094a5.307 5.307 0 0 0 3.773-1.58 5.423 5.423 0 0 0 1.563-3.813v-5.034c0-2.978-2.39-5.393-5.336-5.393zm2.49 10.427c0 1.39-1.115 2.517-2.49 2.517H90.171c-1.375 0-2.49-1.127-2.49-2.517V16.36h17.074v2.157zm0-2.877H87.681v-2.157c0-1.39 1.115-2.517 2.49-2.517h12.094c1.375 0 2.49 1.127 2.49 2.517v2.157z"/></symbol><symbol viewBox="0 0 32 32" id="logo2" xmlns="http://www.w3.org/2000/svg"><ellipse cx="15.829" cy="16" rx="15.829" ry="16"/><path d="M28.179 10.966h-14.84a.358.358 0 0 1-.356-.36V8.45c0-.198.16-.36.356-.36h14.306a.356.356 0 0 1 .356.274l.534 2.157a.363.363 0 0 1-.069.313.354.354 0 0 1-.287.133zm.811 6.113V14.92c0-.198-.16-.36-.356-.36H8.714a.715.715 0 0 0-.71.72v7.91c0 .397.318.72.71.72h19.287a.356.356 0 0 0 .356-.274l.533-2.157a.363.363 0 0 0-.068-.313.354.354 0 0 0-.287-.133h-17.33a.358.358 0 0 1-.356-.36v-2.876c0-.199.16-.36.356-.36h17.43a.358.358 0 0 0 .355-.36z"/></symbol><symbol class="atsvg-inline--fa atfa-envelope atfa-w-16" viewBox="0 0 512 512" id="mail" xmlns="http://www.w3.org/2000/svg"><path d="M464 64H48C21.49 64 0 85.49 0 112v288c0 26.51 21.49 48 48 48h416c26.51 0 48-21.49 48-48V112c0-26.51-21.49-48-48-48zm0 48v40.805c-22.422 18.259-58.168 46.651-134.587 106.49-16.841 13.247-50.201 45.072-73.413 44.701-23.208.375-56.579-31.459-73.413-44.701C106.18 199.465 70.425 171.067 48 152.805V112h416zM48 400V214.398c22.914 18.251 55.409 43.862 104.938 82.646 21.857 17.205 60.134 55.186 103.062 54.955 42.717.231 80.509-37.199 103.053-54.947 49.528-38.783 82.032-64.401 104.947-82.653V400H48z"/></symbol><symbol class="ausvg-inline--fa aufa-map-marker-alt aufa-w-12" viewBox="0 0 384 512" id="map" xmlns="http://www.w3.org/2000/svg"><path d="M172.268 501.67C26.97 291.031 0 269.413 0 192 0 85.961 85.961 0 192 0s192 85.961 192 192c0 77.413-26.97 99.031-172.268 309.67-9.535 13.774-29.93 13.773-39.464 0zM192 272c44.183 0 80-35.817 80-80s-35.817-80-80-80-80 35.817-80 80 35.817 80 80 80z"/></symbol><symbol class="avsvg-inline--fa avfa-minus-circle avfa-w-16" viewBox="0 0 512 512" id="minus-circle" xmlns="http://www.w3.org/2000/svg"><path d="M256 8C119 8 8 119 8 256s111 248 248 248 248-111 248-248S393 8 256 8zM124 296c-6.6 0-12-5.4-12-12v-56c0-6.6 5.4-12 12-12h264c6.6 0 12 5.4 12 12v56c0 6.6-5.4 12-12 12H124z"/></symbol><symbol class="awsvg-inline--fa awfa-mobile-alt awfa-w-10" viewBox="0 0 320 512" id="mobile" xmlns="http://www.w3.org/2000/svg"><path d="M272 0H48C21.5 0 0 21.5 0 48v416c0 26.5 21.5 48 48 48h224c26.5 0 48-21.5 48-48V48c0-26.5-21.5-48-48-48zM160 480c-17.7 0-32-14.3-32-32s14.3-32 32-32 32 14.3 32 32-14.3 32-32 32zm112-108c0 6.6-5.4 12-12 12H60c-6.6 0-12-5.4-12-12V60c0-6.6 5.4-12 12-12h200c6.6 0 12 5.4 12 12v312z"/></symbol><symbol class="axsvg-inline--fa axfa-phone axfa-w-16" viewBox="0 0 512 512" id="phone-solid" xmlns="http://www.w3.org/2000/svg"><path d="M493.4 24.6l-104-24c-11.3-2.6-22.9 3.3-27.5 13.9l-48 112c-4.2 9.8-1.4 21.3 6.9 28l60.6 49.6c-36 76.7-98.9 140.5-177.2 177.2l-49.6-60.6c-6.8-8.3-18.2-11.1-28-6.9l-112 48C3.9 366.5-2 378.1.6 389.4l24 104C27.1 504.2 36.7 512 48 512c256.1 0 464-207.5 464-464 0-11.2-7.7-20.9-18.6-23.4z"/></symbol><symbol class="aysvg-inline--fa ayfa-plus-circle ayfa-w-16" viewBox="0 0 512 512" id="plus-circle" xmlns="http://www.w3.org/2000/svg"><path d="M256 8C119 8 8 119 8 256s111 248 248 248 248-111 248-248S393 8 256 8zm144 276c0 6.6-5.4 12-12 12h-92v92c0 6.6-5.4 12-12 12h-56c-6.6 0-12-5.4-12-12v-92h-92c-6.6 0-12-5.4-12-12v-56c0-6.6 5.4-12 12-12h92v-92c0-6.6 5.4-12 12-12h56c6.6 0 12 5.4 12 12v92h92c6.6 0 12 5.4 12 12v56z"/></symbol><symbol class="azsvg-inline--fa azfa-search azfa-w-16" viewBox="0 0 512 512" id="search" xmlns="http://www.w3.org/2000/svg"><path d="M505 442.7L405.3 343c-4.5-4.5-10.6-7-17-7H372c27.6-35.3 44-79.7 44-128C416 93.1 322.9 0 208 0S0 93.1 0 208s93.1 208 208 208c48.3 0 92.7-16.4 128-44v16.3c0 6.4 2.5 12.5 7 17l99.7 99.7c9.4 9.4 24.6 9.4 33.9 0l28.3-28.3c9.4-9.4 9.4-24.6.1-34zM208 336c-70.7 0-128-57.2-128-128 0-70.7 57.2-128 128-128 70.7 0 128 57.2 128 128 0 70.7-57.2 128-128 128z"/></symbol><symbol class="basvg-inline--fa bafa-twitter-square bafa-w-14" viewBox="0 0 448 512" id="twitter" xmlns="http://www.w3.org/2000/svg"><path d="M400 32H48C21.5 32 0 53.5 0 80v352c0 26.5 21.5 48 48 48h352c26.5 0 48-21.5 48-48V80c0-26.5-21.5-48-48-48zm-48.9 158.8c.2 2.8.2 5.7.2 8.5 0 86.7-66 186.6-186.6 186.6-37.2 0-71.7-10.8-100.7-29.4 5.3.6 10.4.8 15.8.8 30.7 0 58.9-10.4 81.4-28-28.8-.6-53-19.5-61.3-45.5 10.1 1.5 19.2 1.5 29.6-1.2-30-6.1-52.5-32.5-52.5-64.4v-.8c8.7 4.9 18.9 7.9 29.6 8.3a65.447 65.447 0 0 1-29.2-54.6c0-12.2 3.2-23.4 8.9-33.1 32.3 39.8 80.8 65.8 135.2 68.6-9.3-44.5 24-80.6 64-80.6 18.9 0 35.9 7.9 47.9 20.7 14.8-2.8 29-8.3 41.6-15.8-4.9 15.2-15.2 28-28.8 36.1 13.2-1.4 26-5.1 37.8-10.2-8.9 13.1-20.1 24.7-32.9 34z"/></symbol><symbol class="bbsvg-inline--fa bbfa-user bbfa-w-14" viewBox="0 0 448 512" id="user-solid" xmlns="http://www.w3.org/2000/svg"><path d="M224 256c70.7 0 128-57.3 128-128S294.7 0 224 0 96 57.3 96 128s57.3 128 128 128zm89.6 32h-16.7c-22.2 10.2-46.9 16-72.9 16s-50.6-5.8-72.9-16h-16.7C60.2 288 0 348.2 0 422.4V464c0 26.5 21.5 48 48 48h352c26.5 0 48-21.5 48-48v-41.6c0-74.2-60.2-134.4-134.4-134.4z"/></symbol><symbol class="bcsvg-inline--fa bcfa-viber bcfa-w-16" viewBox="0 0 512 512" id="viber" xmlns="http://www.w3.org/2000/svg"><path d="M444 49.9C431.3 38.2 379.9.9 265.3.4c0 0-135.1-8.1-200.9 52.3C27.8 89.3 14.9 143 13.5 209.5c-1.4 66.5-3.1 191.1 117 224.9h.1l-.1 51.6s-.8 20.9 13 25.1c16.6 5.2 26.4-10.7 42.3-27.8 8.7-9.4 20.7-23.2 29.8-33.7 82.2 6.9 145.3-8.9 152.5-11.2 16.6-5.4 110.5-17.4 125.7-142 15.8-128.6-7.6-209.8-49.8-246.5zM457.9 287c-12.9 104-89 110.6-103 115.1-6 1.9-61.5 15.7-131.2 11.2 0 0-52 62.7-68.2 79-5.3 5.3-11.1 4.8-11-5.7 0-6.9.4-85.7.4-85.7-.1 0-.1 0 0 0-101.8-28.2-95.8-134.3-94.7-189.8 1.1-55.5 11.6-101 42.6-131.6 55.7-50.5 170.4-43 170.4-43 96.9.4 143.3 29.6 154.1 39.4 35.7 30.6 53.9 103.8 40.6 211.1zm-139-80.8c.4 8.6-12.5 9.2-12.9.6-1.1-22-11.4-32.7-32.6-33.9-8.6-.5-7.8-13.4.7-12.9 27.9 1.5 43.4 17.5 44.8 46.2zm20.3 11.3c1-42.4-25.5-75.6-75.8-79.3-8.5-.6-7.6-13.5.9-12.9 58 4.2 88.9 44.1 87.8 92.5-.1 8.6-13.1 8.2-12.9-.3zm47 13.4c.1 8.6-12.9 8.7-12.9.1-.6-81.5-54.9-125.9-120.8-126.4-8.5-.1-8.5-12.9 0-12.9 73.7.5 133 51.4 133.7 139.2zM374.9 329v.2c-10.8 19-31 40-51.8 33.3l-.2-.3c-21.1-5.9-70.8-31.5-102.2-56.5-16.2-12.8-31-27.9-42.4-42.4-10.3-12.9-20.7-28.2-30.8-46.6-21.3-38.5-26-55.7-26-55.7-6.7-20.8 14.2-41 33.3-51.8h.2c9.2-4.8 18-3.2 23.9 3.9 0 0 12.4 14.8 17.7 22.1 5 6.8 11.7 17.7 15.2 23.8 6.1 10.9 2.3 22-3.7 26.6l-12 9.6c-6.1 4.9-5.3 14-5.3 14s17.8 67.3 84.3 84.3c0 0 9.1.8 14-5.3l9.6-12c4.6-6 15.7-9.8 26.6-3.7 14.7 8.3 33.4 21.2 45.8 32.9 7 5.7 8.6 14.4 3.8 23.6z"/></symbol><symbol class="bdsvg-inline--fa bdfa-youtube bdfa-w-18" viewBox="0 0 576 512" id="youtube" xmlns="http://www.w3.org/2000/svg"><path d="M549.655 124.083c-6.281-23.65-24.787-42.276-48.284-48.597C458.781 64 288 64 288 64S117.22 64 74.629 75.486c-23.497 6.322-42.003 24.947-48.284 48.597-11.412 42.867-11.412 132.305-11.412 132.305s0 89.438 11.412 132.305c6.281 23.65 24.787 41.5 48.284 47.821C117.22 448 288 448 288 448s170.78 0 213.371-11.486c23.497-6.321 42.003-24.171 48.284-47.821 11.412-42.867 11.412-132.305 11.412-132.305s0-89.438-11.412-132.305zm-317.51 213.508V175.185l142.739 81.205-142.739 81.201z"/></symbol></svg>